<svg width="92" height="19" viewBox="0 0 92 19" fill="none" xmlns="http://www.w3.org/2000/svg">
<g filter="url(#filter0_d)">
<path d="M10.5078 7.94922H6.91211L6.22852 10H4.04785L7.75293 0.046875H9.65332L13.3789 10H11.1982L10.5078 7.94922ZM7.46582 6.28809H9.9541L8.70312 2.5625L7.46582 6.28809ZM16.4824 8.35254H21.5V10H13.9189V8.79688L18.8408 1.70801H13.9258V0.046875H21.3906V1.22266L16.4824 8.35254ZM28.7871 5.68652H24.8496V8.35254H29.4707V10H22.7988V0.046875H29.457V1.70801H24.8496V4.08008H28.7871V5.68652ZM34.3584 6.35645H32.7246V10H30.6738V0.046875H34.3721C35.5479 0.046875 36.4548 0.308919 37.0928 0.833008C37.7308 1.3571 38.0498 2.09766 38.0498 3.05469C38.0498 3.73372 37.9017 4.30111 37.6055 4.75684C37.3138 5.20801 36.8695 5.56803 36.2725 5.83691L38.4258 9.9043V10H36.2246L34.3584 6.35645ZM32.7246 4.69531H34.3789C34.8939 4.69531 35.2926 4.56543 35.5752 4.30566C35.8577 4.04134 35.999 3.67904 35.999 3.21875C35.999 2.74935 35.8646 2.38021 35.5957 2.11133C35.3314 1.84245 34.9235 1.70801 34.3721 1.70801H32.7246V4.69531ZM39.6152 10V0.046875H43.1016C44.3092 0.046875 45.2253 0.279297 45.8496 0.744141C46.474 1.20443 46.7861 1.88118 46.7861 2.77441C46.7861 3.26204 46.6608 3.69271 46.4102 4.06641C46.1595 4.43555 45.8109 4.70671 45.3643 4.87988C45.8747 5.00749 46.2757 5.26497 46.5674 5.65234C46.8636 6.03971 47.0117 6.51367 47.0117 7.07422C47.0117 8.03125 46.7064 8.75586 46.0957 9.24805C45.485 9.74023 44.6146 9.99089 43.4844 10H39.6152ZM41.666 5.66602V8.35254H43.4229C43.9059 8.35254 44.2819 8.23861 44.5508 8.01074C44.8242 7.77832 44.9609 7.45931 44.9609 7.05371C44.9609 6.14225 44.4893 5.67969 43.5459 5.66602H41.666ZM41.666 4.2168H43.1836C44.2181 4.19857 44.7354 3.78613 44.7354 2.97949C44.7354 2.52832 44.6032 2.20475 44.3389 2.00879C44.0791 1.80827 43.6667 1.70801 43.1016 1.70801H41.666V4.2168ZM54.1758 7.94922H50.5801L49.8965 10H47.7158L51.4209 0.046875H53.3213L57.0469 10H54.8662L54.1758 7.94922ZM51.1338 6.28809H53.6221L52.3711 2.5625L51.1338 6.28809ZM60.1572 10H58.1064V0.046875H60.1572V10ZM66.0771 0.046875H68.1279V6.9375C68.1279 7.57096 67.9867 8.13151 67.7041 8.61914C67.4261 9.10221 67.0319 9.47591 66.5215 9.74023C66.0111 10.0046 65.4346 10.1367 64.792 10.1367C63.7393 10.1367 62.9189 9.87012 62.3311 9.33691C61.7432 8.79915 61.4492 8.04036 61.4492 7.06055H63.5137C63.5137 7.54818 63.6162 7.9082 63.8213 8.14062C64.0264 8.37305 64.3499 8.48926 64.792 8.48926C65.1839 8.48926 65.4961 8.35482 65.7285 8.08594C65.9609 7.81706 66.0771 7.43424 66.0771 6.9375V0.046875ZM75.3535 7.94922H71.7578L71.0742 10H68.8936L72.5986 0.046875H74.499L78.2246 10H76.0439L75.3535 7.94922ZM72.3115 6.28809H74.7998L73.5488 2.5625L72.3115 6.28809ZM87.248 10H85.1973L81.2051 3.45117V10H79.1543V0.046875H81.2051L85.2041 6.60938V0.046875H87.248V10Z" fill="black"/>
</g>
<defs>
<filter id="filter0_d" x="0.0478516" y="0.046875" width="91.2002" height="18.0898" filterUnits="userSpaceOnUse" color-interpolation-filters="sRGB">
<feFlood flood-opacity="0" result="BackgroundImageFix"/>
<feColorMatrix in="SourceAlpha" type="matrix" values="0 0 0 0 0 0 0 0 0 0 0 0 0 0 0 0 0 0 127 0"/>
<feOffset dy="4"/>
<feGaussianBlur stdDeviation="2"/>
<feColorMatrix type="matrix" values="0 0 0 0 0.984314 0 0 0 0 0.992157 0 0 0 0 0.419608 0 0 0 1 0"/>
<feBlend mode="normal" in2="BackgroundImageFix" result="effect1_dropShadow"/>
<feBlend mode="normal" in="SourceGraphic" in2="effect1_dropShadow" result="shape"/>
</filter>
</defs>
</svg>
