<svg width="44" height="19" viewBox="0 0 44 19" fill="none" xmlns="http://www.w3.org/2000/svg">
<g filter="url(#filter0_d)">
<path d="M4.88867 10V0.046875H8.375C9.58268 0.046875 10.4987 0.279297 11.123 0.744141C11.7474 1.20443 12.0596 1.88118 12.0596 2.77441C12.0596 3.26204 11.9342 3.69271 11.6836 4.06641C11.4329 4.43555 11.0843 4.70671 10.6377 4.87988C11.1481 5.00749 11.5492 5.26497 11.8408 5.65234C12.137 6.03971 12.2852 6.51367 12.2852 7.07422C12.2852 8.03125 11.9798 8.75586 11.3691 9.24805C10.7585 9.74023 9.88802 9.99089 8.75781 10H4.88867ZM6.93945 5.66602V8.35254H8.69629C9.17936 8.35254 9.55534 8.23861 9.82422 8.01074C10.0977 7.77832 10.2344 7.45931 10.2344 7.05371C10.2344 6.14225 9.7627 5.67969 8.81934 5.66602H6.93945ZM6.93945 4.2168H8.45703C9.49154 4.19857 10.0088 3.78613 10.0088 2.97949C10.0088 2.52832 9.87663 2.20475 9.6123 2.00879C9.35254 1.80827 8.9401 1.70801 8.375 1.70801H6.93945V4.2168ZM19.4492 7.94922H15.8535L15.1699 10H12.9893L16.6943 0.046875H18.5947L22.3203 10H20.1396L19.4492 7.94922ZM16.4072 6.28809H18.8955L17.6445 2.5625L16.4072 6.28809ZM26.3672 6.00781L25.3008 7.15625V10H23.25V0.046875H25.3008V4.55859L26.2031 3.32129L28.7393 0.046875H31.2617L27.7275 4.46973L31.3643 10H28.9238L26.3672 6.00781ZM39.6699 0.046875V6.60254C39.6699 7.69173 39.3281 8.55306 38.6445 9.18652C37.9655 9.81999 37.0358 10.1367 35.8555 10.1367C34.6934 10.1367 33.7705 9.8291 33.0869 9.21387C32.4033 8.59863 32.0547 7.75326 32.041 6.67773V0.046875H34.0918V6.61621C34.0918 7.2679 34.2467 7.74414 34.5566 8.04492C34.8711 8.34115 35.304 8.48926 35.8555 8.48926C37.0085 8.48926 37.5941 7.88314 37.6123 6.6709V0.046875H39.6699Z" fill="black"/>
</g>
<defs>
<filter id="filter0_d" x="0.888672" y="0.046875" width="42.7812" height="18.0898" filterUnits="userSpaceOnUse" color-interpolation-filters="sRGB">
<feFlood flood-opacity="0" result="BackgroundImageFix"/>
<feColorMatrix in="SourceAlpha" type="matrix" values="0 0 0 0 0 0 0 0 0 0 0 0 0 0 0 0 0 0 127 0"/>
<feOffset dy="4"/>
<feGaussianBlur stdDeviation="2"/>
<feColorMatrix type="matrix" values="0 0 0 0 0.984314 0 0 0 0 0.992157 0 0 0 0 0.419608 0 0 0 1 0"/>
<feBlend mode="normal" in2="BackgroundImageFix" result="effect1_dropShadow"/>
<feBlend mode="normal" in="SourceGraphic" in2="effect1_dropShadow" result="shape"/>
</filter>
</defs>
</svg>
