<svg width="93" height="20" viewBox="0 0 93 20" fill="none" xmlns="http://www.w3.org/2000/svg">
<g filter="url(#filter0_d)">
<path d="M12.9893 11H10.9385V6.73438H6.93945V11H4.88867V1.04688H6.93945V5.08008H10.9385V1.04688H12.9893V11ZM22.9629 6.24902C22.9629 7.22884 22.7897 8.08789 22.4434 8.82617C22.097 9.56445 21.6003 10.1341 20.9531 10.5352C20.3105 10.9362 19.5723 11.1367 18.7383 11.1367C17.9134 11.1367 17.1774 10.9385 16.5303 10.542C15.8831 10.1455 15.3818 9.5804 15.0264 8.84668C14.6709 8.1084 14.4909 7.26074 14.4863 6.30371V5.81152C14.4863 4.83171 14.6618 3.97038 15.0127 3.22754C15.3682 2.48014 15.8672 1.9082 16.5098 1.51172C17.1569 1.11068 17.8952 0.910156 18.7246 0.910156C19.554 0.910156 20.29 1.11068 20.9326 1.51172C21.5798 1.9082 22.0788 2.48014 22.4297 3.22754C22.7852 3.97038 22.9629 4.82943 22.9629 5.80469V6.24902ZM20.8848 5.79785C20.8848 4.75423 20.6979 3.96126 20.3242 3.41895C19.9505 2.87663 19.4173 2.60547 18.7246 2.60547C18.0365 2.60547 17.5055 2.87435 17.1318 3.41211C16.7581 3.94531 16.569 4.72917 16.5645 5.76367V6.24902C16.5645 7.2653 16.7513 8.05371 17.125 8.61426C17.4987 9.1748 18.0365 9.45508 18.7383 9.45508C19.4264 9.45508 19.9551 9.1862 20.3242 8.64844C20.6934 8.10612 20.8802 7.31771 20.8848 6.2832V5.79785ZM35.7529 7.68457C35.6755 8.75553 35.279 9.59863 34.5635 10.2139C33.8525 10.8291 32.9137 11.1367 31.7471 11.1367C30.471 11.1367 29.4661 10.7083 28.7324 9.85156C28.0033 8.99023 27.6387 7.8099 27.6387 6.31055V5.70215C27.6387 4.74512 27.8073 3.90202 28.1445 3.17285C28.4818 2.44368 28.9626 1.88542 29.5869 1.49805C30.2158 1.10612 30.945 0.910156 31.7744 0.910156C32.9229 0.910156 33.848 1.21777 34.5498 1.83301C35.2516 2.44824 35.6572 3.31185 35.7666 4.42383H33.7158C33.6657 3.78125 33.4857 3.31641 33.1758 3.0293C32.8704 2.73763 32.4033 2.5918 31.7744 2.5918C31.0908 2.5918 30.5781 2.83789 30.2363 3.33008C29.8991 3.81771 29.7259 4.5765 29.7168 5.60645V6.3584C29.7168 7.43392 29.8786 8.22005 30.2021 8.7168C30.5303 9.21354 31.0452 9.46191 31.7471 9.46191C32.3805 9.46191 32.8522 9.31836 33.1621 9.03125C33.4766 8.73958 33.6566 8.29069 33.7021 7.68457H35.7529ZM45.2002 11H43.1494V6.73438H39.1504V11H37.0996V1.04688H39.1504V5.08008H43.1494V1.04688H45.2002V11ZM49.1787 11H47.1279V1.04688H49.1787V11ZM57.252 1.04688L59.8086 8.26562L62.3516 1.04688H65.0449V11H62.9873V8.2793L63.1924 3.58301L60.5059 11H59.0977L56.418 3.58984L56.623 8.2793V11H54.5723V1.04688H57.252ZM69.0166 11H66.9658V1.04688H69.0166V11ZM79.0176 11H76.9668L72.9746 4.45117V11H70.9238V1.04688H72.9746L76.9736 7.60938V1.04688H79.0176V11ZM88.9092 11H86.8584V6.73438H82.8594V11H80.8086V1.04688H82.8594V5.08008H86.8584V1.04688H88.9092V11Z" fill="black"/>
</g>
<defs>
<filter id="filter0_d" x="0.888672" y="0.910156" width="92.0205" height="18.2266" filterUnits="userSpaceOnUse" color-interpolation-filters="sRGB">
<feFlood flood-opacity="0" result="BackgroundImageFix"/>
<feColorMatrix in="SourceAlpha" type="matrix" values="0 0 0 0 0 0 0 0 0 0 0 0 0 0 0 0 0 0 127 0"/>
<feOffset dy="4"/>
<feGaussianBlur stdDeviation="2"/>
<feColorMatrix type="matrix" values="0 0 0 0 0.984314 0 0 0 0 0.992157 0 0 0 0 0.419608 0 0 0 1 0"/>
<feBlend mode="normal" in2="BackgroundImageFix" result="effect1_dropShadow"/>
<feBlend mode="normal" in="SourceGraphic" in2="effect1_dropShadow" result="shape"/>
</filter>
</defs>
</svg>
