<svg width="61" height="18" viewBox="0 0 61 18" fill="none" xmlns="http://www.w3.org/2000/svg">
<g filter="url(#filter0_d)">
<path d="M7.56836 0.046875L10.125 7.26562L12.668 0.046875H15.3613V10H13.3037V7.2793L13.5088 2.58301L10.8223 10H9.41406L6.73438 2.58984L6.93945 7.2793V10H4.88867V0.046875H7.56836ZM22.8945 7.94922H19.2988L18.6152 10H16.4346L20.1396 0.046875H22.04L25.7656 10H23.585L22.8945 7.94922ZM19.8525 6.28809H22.3408L21.0898 2.5625L19.8525 6.28809ZM26.6953 10V0.046875H29.7578C30.6328 0.046875 31.4144 0.245117 32.1025 0.641602C32.7952 1.03353 33.3353 1.59408 33.7227 2.32324C34.11 3.04785 34.3037 3.87272 34.3037 4.79785V5.25586C34.3037 6.18099 34.1123 7.00358 33.7295 7.72363C33.3512 8.44368 32.8158 9.00195 32.123 9.39844C31.4303 9.79492 30.6488 9.99544 29.7783 10H26.6953ZM28.7461 1.70801V8.35254H29.7373C30.5394 8.35254 31.1523 8.09049 31.5762 7.56641C32 7.04232 32.2165 6.29264 32.2256 5.31738V4.79102C32.2256 3.7793 32.016 3.01367 31.5967 2.49414C31.1774 1.97005 30.5645 1.70801 29.7578 1.70801H28.7461ZM39.4854 6.35645H37.8516V10H35.8008V0.046875H39.499C40.6748 0.046875 41.5817 0.308919 42.2197 0.833008C42.8577 1.3571 43.1768 2.09766 43.1768 3.05469C43.1768 3.73372 43.0286 4.30111 42.7324 4.75684C42.4408 5.20801 41.9964 5.56803 41.3994 5.83691L43.5527 9.9043V10H41.3516L39.4854 6.35645ZM37.8516 4.69531H39.5059C40.0208 4.69531 40.4196 4.56543 40.7021 4.30566C40.9847 4.04134 41.126 3.67904 41.126 3.21875C41.126 2.74935 40.9915 2.38021 40.7227 2.11133C40.4583 1.84245 40.0505 1.70801 39.499 1.70801H37.8516V4.69531ZM46.9229 10H44.8721V0.046875H46.9229V10ZM48.8301 10V0.046875H51.8926C52.7676 0.046875 53.5492 0.245117 54.2373 0.641602C54.93 1.03353 55.4701 1.59408 55.8574 2.32324C56.2448 3.04785 56.4385 3.87272 56.4385 4.79785V5.25586C56.4385 6.18099 56.2471 7.00358 55.8643 7.72363C55.486 8.44368 54.9505 9.00195 54.2578 9.39844C53.5651 9.79492 52.7835 9.99544 51.9131 10H48.8301ZM50.8809 1.70801V8.35254H51.8721C52.6742 8.35254 53.2871 8.09049 53.7109 7.56641C54.1348 7.04232 54.3512 6.29264 54.3604 5.31738V4.79102C54.3604 3.7793 54.1507 3.01367 53.7314 2.49414C53.3122 1.97005 52.6992 1.70801 51.8926 1.70801H50.8809Z" fill="black"/>
</g>
<defs>
<filter id="filter0_d" x="0.888672" y="0.046875" width="59.5498" height="17.9531" filterUnits="userSpaceOnUse" color-interpolation-filters="sRGB">
<feFlood flood-opacity="0" result="BackgroundImageFix"/>
<feColorMatrix in="SourceAlpha" type="matrix" values="0 0 0 0 0 0 0 0 0 0 0 0 0 0 0 0 0 0 127 0"/>
<feOffset dy="4"/>
<feGaussianBlur stdDeviation="2"/>
<feColorMatrix type="matrix" values="0 0 0 0 0.984314 0 0 0 0 0.992157 0 0 0 0 0.419608 0 0 0 1 0"/>
<feBlend mode="normal" in2="BackgroundImageFix" result="effect1_dropShadow"/>
<feBlend mode="normal" in="SourceGraphic" in2="effect1_dropShadow" result="shape"/>
</filter>
</defs>
</svg>
