<svg width="63" height="20" viewBox="0 0 63 20" fill="none" xmlns="http://www.w3.org/2000/svg">
<g filter="url(#filter0_d)">
<path d="M12.9824 11H10.9316L6.93945 4.45117V11H4.88867V1.04688H6.93945L10.9385 7.60938V1.04688H12.9824V11ZM20.5156 8.94922H16.9199L16.2363 11H14.0557L17.7607 1.04688H19.6611L23.3867 11H21.2061L20.5156 8.94922ZM17.4736 7.28809H19.9619L18.7109 3.5625L17.4736 7.28809ZM26.4971 11H24.4463V1.04688H26.4971V11ZM32.0889 7.35645H30.4551V11H28.4043V1.04688H32.1025C33.2783 1.04688 34.1852 1.30892 34.8232 1.83301C35.4613 2.3571 35.7803 3.09766 35.7803 4.05469C35.7803 4.73372 35.6322 5.30111 35.3359 5.75684C35.0443 6.20801 34.5999 6.56803 34.0029 6.83691L36.1562 10.9043V11H33.9551L32.0889 7.35645ZM30.4551 5.69531H32.1094C32.6243 5.69531 33.0231 5.56543 33.3057 5.30566C33.5882 5.04134 33.7295 4.67904 33.7295 4.21875C33.7295 3.74935 33.5951 3.38021 33.3262 3.11133C33.0618 2.84245 32.654 2.70801 32.1025 2.70801H30.4551V5.69531ZM45.5215 6.24902C45.5215 7.22884 45.3483 8.08789 45.002 8.82617C44.6556 9.56445 44.1589 10.1341 43.5117 10.5352C42.8691 10.9362 42.1309 11.1367 41.2969 11.1367C40.472 11.1367 39.736 10.9385 39.0889 10.542C38.4417 10.1455 37.9404 9.5804 37.585 8.84668C37.2295 8.1084 37.0495 7.26074 37.0449 6.30371V5.81152C37.0449 4.83171 37.2204 3.97038 37.5713 3.22754C37.9268 2.48014 38.4258 1.9082 39.0684 1.51172C39.7155 1.11068 40.4538 0.910156 41.2832 0.910156C42.1126 0.910156 42.8486 1.11068 43.4912 1.51172C44.1383 1.9082 44.6374 2.48014 44.9883 3.22754C45.3438 3.97038 45.5215 4.82943 45.5215 5.80469V6.24902ZM43.4434 5.79785C43.4434 4.75423 43.2565 3.96126 42.8828 3.41895C42.5091 2.87663 41.9759 2.60547 41.2832 2.60547C40.5951 2.60547 40.0641 2.87435 39.6904 3.41211C39.3167 3.94531 39.1276 4.72917 39.123 5.76367V6.24902C39.123 7.2653 39.3099 8.05371 39.6836 8.61426C40.0573 9.1748 40.5951 9.45508 41.2969 9.45508C41.985 9.45508 42.5137 9.1862 42.8828 8.64844C43.252 8.10612 43.4388 7.31771 43.4434 6.2832V5.79785ZM47.0117 11V1.04688H50.498C51.7057 1.04688 52.6217 1.2793 53.2461 1.74414C53.8704 2.20443 54.1826 2.88118 54.1826 3.77441C54.1826 4.26204 54.0573 4.69271 53.8066 5.06641C53.556 5.43555 53.2074 5.70671 52.7607 5.87988C53.2712 6.00749 53.6722 6.26497 53.9639 6.65234C54.2601 7.03971 54.4082 7.51367 54.4082 8.07422C54.4082 9.03125 54.1029 9.75586 53.4922 10.248C52.8815 10.7402 52.0111 10.9909 50.8809 11H47.0117ZM49.0625 6.66602V9.35254H50.8193C51.3024 9.35254 51.6784 9.23861 51.9473 9.01074C52.2207 8.77832 52.3574 8.45931 52.3574 8.05371C52.3574 7.14225 51.8857 6.67969 50.9424 6.66602H49.0625ZM49.0625 5.2168H50.5801C51.6146 5.19857 52.1318 4.78613 52.1318 3.97949C52.1318 3.52832 51.9997 3.20475 51.7354 3.00879C51.4756 2.80827 51.0632 2.70801 50.498 2.70801H49.0625V5.2168ZM58.1338 11H56.083V1.04688H58.1338V11Z" fill="black"/>
</g>
<defs>
<filter id="filter0_d" x="0.888672" y="0.910156" width="61.2451" height="18.2266" filterUnits="userSpaceOnUse" color-interpolation-filters="sRGB">
<feFlood flood-opacity="0" result="BackgroundImageFix"/>
<feColorMatrix in="SourceAlpha" type="matrix" values="0 0 0 0 0 0 0 0 0 0 0 0 0 0 0 0 0 0 127 0"/>
<feOffset dy="4"/>
<feGaussianBlur stdDeviation="2"/>
<feColorMatrix type="matrix" values="0 0 0 0 0.984314 0 0 0 0 0.992157 0 0 0 0 0.419608 0 0 0 1 0"/>
<feBlend mode="normal" in2="BackgroundImageFix" result="effect1_dropShadow"/>
<feBlend mode="normal" in="SourceGraphic" in2="effect1_dropShadow" result="shape"/>
</filter>
</defs>
</svg>
