<svg width="78" height="20" viewBox="0 0 78 20" fill="none" xmlns="http://www.w3.org/2000/svg">
<g filter="url(#filter0_d)">
<path d="M12.9824 11H10.9316L6.93945 4.45117V11H4.88867V1.04688H6.93945L10.9385 7.60938V1.04688H12.9824V11ZM20.7617 6.68652H16.8242V9.35254H21.4453V11H14.7734V1.04688H21.4316V2.70801H16.8242V5.08008H20.7617V6.68652ZM30.4004 8.12891L31.7402 1.04688H33.7842L31.5762 11H29.5117L27.8916 4.3418L26.2715 11H24.207L21.999 1.04688H24.043L25.3896 8.11523L27.0303 1.04688H28.7666L30.4004 8.12891ZM41.8164 5.53125L43.8877 1.04688H46.1299L42.8623 7.39062V11H40.7773V7.39062L37.5098 1.04688H39.7588L41.8164 5.53125ZM55.0098 6.24902C55.0098 7.22884 54.8366 8.08789 54.4902 8.82617C54.1439 9.56445 53.6471 10.1341 53 10.5352C52.3574 10.9362 51.6191 11.1367 50.7852 11.1367C49.9603 11.1367 49.2243 10.9385 48.5771 10.542C47.93 10.1455 47.4287 9.5804 47.0732 8.84668C46.7178 8.1084 46.5378 7.26074 46.5332 6.30371V5.81152C46.5332 4.83171 46.7087 3.97038 47.0596 3.22754C47.415 2.48014 47.9141 1.9082 48.5566 1.51172C49.2038 1.11068 49.9421 0.910156 50.7715 0.910156C51.6009 0.910156 52.3369 1.11068 52.9795 1.51172C53.6266 1.9082 54.1257 2.48014 54.4766 3.22754C54.832 3.97038 55.0098 4.82943 55.0098 5.80469V6.24902ZM52.9316 5.79785C52.9316 4.75423 52.7448 3.96126 52.3711 3.41895C51.9974 2.87663 51.4642 2.60547 50.7715 2.60547C50.0833 2.60547 49.5524 2.87435 49.1787 3.41211C48.805 3.94531 48.6159 4.72917 48.6113 5.76367V6.24902C48.6113 7.2653 48.7982 8.05371 49.1719 8.61426C49.5456 9.1748 50.0833 9.45508 50.7852 9.45508C51.4733 9.45508 52.002 9.1862 52.3711 8.64844C52.7402 8.10612 52.9271 7.31771 52.9316 6.2832V5.79785ZM60.1846 7.35645H58.5508V11H56.5V1.04688H60.1982C61.374 1.04688 62.2809 1.30892 62.9189 1.83301C63.557 2.3571 63.876 3.09766 63.876 4.05469C63.876 4.73372 63.7279 5.30111 63.4316 5.75684C63.14 6.20801 62.6956 6.56803 62.0986 6.83691L64.252 10.9043V11H62.0508L60.1846 7.35645ZM58.5508 5.69531H60.2051C60.7201 5.69531 61.1188 5.56543 61.4014 5.30566C61.6839 5.04134 61.8252 4.67904 61.8252 4.21875C61.8252 3.74935 61.6908 3.38021 61.4219 3.11133C61.1576 2.84245 60.7497 2.70801 60.1982 2.70801H58.5508V5.69531ZM68.5586 7.00781L67.4922 8.15625V11H65.4414V1.04688H67.4922V5.55859L68.3945 4.32129L70.9307 1.04688H73.4531L69.9189 5.46973L73.5557 11H71.1152L68.5586 7.00781Z" fill="black"/>
</g>
<defs>
<filter id="filter0_d" x="0.888672" y="0.910156" width="76.667" height="18.2266" filterUnits="userSpaceOnUse" color-interpolation-filters="sRGB">
<feFlood flood-opacity="0" result="BackgroundImageFix"/>
<feColorMatrix in="SourceAlpha" type="matrix" values="0 0 0 0 0 0 0 0 0 0 0 0 0 0 0 0 0 0 127 0"/>
<feOffset dy="4"/>
<feGaussianBlur stdDeviation="2"/>
<feColorMatrix type="matrix" values="0 0 0 0 0.984314 0 0 0 0 0.992157 0 0 0 0 0.419608 0 0 0 1 0"/>
<feBlend mode="normal" in2="BackgroundImageFix" result="effect1_dropShadow"/>
<feBlend mode="normal" in="SourceGraphic" in2="effect1_dropShadow" result="shape"/>
</filter>
</defs>
</svg>
