<svg width="62" height="21" viewBox="0 0 62 21" fill="none" xmlns="http://www.w3.org/2000/svg">
<g filter="url(#filter0_d)">
<path d="M8.4502 4.47852L10.3164 1.04688H12.6748L9.77637 5.98242L12.75 11H10.3643L8.4502 7.51367L6.53613 11H4.15039L7.12402 5.98242L4.22559 1.04688H6.58398L8.4502 4.47852ZM15.9697 11H13.9189V1.04688H15.9697V11ZM25.9707 11H23.9199L19.9277 4.45117V11H17.877V1.04688H19.9277L23.9268 7.60938V1.04688H25.9707V11ZM33.5039 8.94922H29.9082L29.2246 11H27.0439L30.749 1.04688H32.6494L36.375 11H34.1943L33.5039 8.94922ZM30.4619 7.28809H32.9502L31.6992 3.5625L30.4619 7.28809ZM39.3555 9.35254H43.71V11H37.3047V1.04688H39.3555V9.35254ZM47.0732 11H45.0225V1.04688H47.0732V11ZM57.1426 6.24902C57.1426 7.17871 56.9922 7.98763 56.6914 8.67578C56.3906 9.35938 55.9736 9.90853 55.4404 10.3232L57.0947 11.6221L55.7891 12.7773L53.6699 11.0752C53.4284 11.1162 53.1777 11.1367 52.918 11.1367C52.0931 11.1367 51.3571 10.9385 50.71 10.542C50.0628 10.1455 49.5615 9.5804 49.2061 8.84668C48.8506 8.1084 48.6706 7.26074 48.666 6.30371V5.81152C48.666 4.83171 48.8415 3.97038 49.1924 3.22754C49.5479 2.48014 50.0469 1.9082 50.6895 1.51172C51.3366 1.11068 52.0749 0.910156 52.9043 0.910156C53.7337 0.910156 54.4697 1.11068 55.1123 1.51172C55.7594 1.9082 56.2585 2.48014 56.6094 3.22754C56.9648 3.97038 57.1426 4.82943 57.1426 5.80469V6.24902ZM55.0645 5.79785C55.0645 4.75423 54.8776 3.96126 54.5039 3.41895C54.1302 2.87663 53.597 2.60547 52.9043 2.60547C52.2161 2.60547 51.6852 2.87435 51.3115 3.41211C50.9378 3.94531 50.7487 4.72917 50.7441 5.76367V6.24902C50.7441 7.2653 50.931 8.05371 51.3047 8.61426C51.6784 9.1748 52.2161 9.45508 52.918 9.45508C53.6061 9.45508 54.1348 9.1862 54.5039 8.64844C54.873 8.10612 55.0599 7.31771 55.0645 6.2832V5.79785Z" fill="black"/>
</g>
<defs>
<filter id="filter0_d" x="0.150391" y="0.910156" width="60.9922" height="19.8672" filterUnits="userSpaceOnUse" color-interpolation-filters="sRGB">
<feFlood flood-opacity="0" result="BackgroundImageFix"/>
<feColorMatrix in="SourceAlpha" type="matrix" values="0 0 0 0 0 0 0 0 0 0 0 0 0 0 0 0 0 0 127 0"/>
<feOffset dy="4"/>
<feGaussianBlur stdDeviation="2"/>
<feColorMatrix type="matrix" values="0 0 0 0 0.984314 0 0 0 0 0.992157 0 0 0 0 0.419608 0 0 0 1 0"/>
<feBlend mode="normal" in2="BackgroundImageFix" result="effect1_dropShadow"/>
<feBlend mode="normal" in="SourceGraphic" in2="effect1_dropShadow" result="shape"/>
</filter>
</defs>
</svg>
