<svg width="214" height="24" viewBox="0 0 214 24" fill="none" xmlns="http://www.w3.org/2000/svg">
<g filter="url(#filter0_d)">
<path d="M10.5078 10.9492H6.91211L6.22852 13H4.04785L7.75293 3.04688H9.65332L13.3789 13H11.1982L10.5078 10.9492ZM7.46582 9.28809H9.9541L8.70312 5.5625L7.46582 9.28809ZM14.3086 13V3.04688H17.3711C18.2461 3.04688 19.0277 3.24512 19.7158 3.6416C20.4085 4.03353 20.9486 4.59408 21.3359 5.32324C21.7233 6.04785 21.917 6.87272 21.917 7.79785V8.25586C21.917 9.18099 21.7256 10.0036 21.3428 10.7236C20.9645 11.4437 20.429 12.002 19.7363 12.3984C19.0436 12.7949 18.262 12.9954 17.3916 13H14.3086ZM16.3594 4.70801V11.3525H17.3506C18.1527 11.3525 18.7656 11.0905 19.1895 10.5664C19.6133 10.0423 19.8298 9.29264 19.8389 8.31738V7.79102C19.8389 6.7793 19.6292 6.01367 19.21 5.49414C18.7907 4.97005 18.1777 4.70801 17.3711 4.70801H16.3594ZM29.4023 8.68652H25.4648V11.3525H30.0859V13H23.4141V3.04688H30.0723V4.70801H25.4648V7.08008H29.4023V8.68652ZM34.7207 7.53125L36.792 3.04688H39.0342L35.7666 9.39062V13H33.6816V9.39062L30.4141 3.04688H32.6631L34.7207 7.53125ZM45.9316 8.68652H41.9941V11.3525H46.6152V13H39.9434V3.04688H46.6016V4.70801H41.9941V7.08008H45.9316V8.68652ZM50.498 3.04688L53.0547 10.2656L55.5977 3.04688H58.291V13H56.2334V10.2793L56.4385 5.58301L53.752 13H52.3438L49.6641 5.58984L49.8691 10.2793V13H47.8184V3.04688H50.498ZM62.2627 13H60.2119V3.04688H62.2627V13ZM73.2754 10.9492H69.6797L68.9961 13H66.8154L70.5205 3.04688H72.4209L76.1465 13H73.9658L73.2754 10.9492ZM70.2334 9.28809H72.7217L71.4707 5.5625L70.2334 9.28809ZM81.0889 3.04688H83.1396V9.9375C83.1396 10.571 82.9984 11.1315 82.7158 11.6191C82.4378 12.1022 82.0436 12.4759 81.5332 12.7402C81.0228 13.0046 80.4463 13.1367 79.8037 13.1367C78.751 13.1367 77.9307 12.8701 77.3428 12.3369C76.7549 11.7992 76.4609 11.0404 76.4609 10.0605H78.5254C78.5254 10.5482 78.6279 10.9082 78.833 11.1406C79.0381 11.373 79.3617 11.4893 79.8037 11.4893C80.1956 11.4893 80.5078 11.3548 80.7402 11.0859C80.9727 10.8171 81.0889 10.4342 81.0889 9.9375V3.04688ZM90.3652 10.9492H86.7695L86.0859 13H83.9053L87.6104 3.04688H89.5107L93.2363 13H91.0557L90.3652 10.9492ZM87.3232 9.28809H89.8115L88.5605 5.5625L87.3232 9.28809ZM102.191 8.24902C102.191 9.22884 102.018 10.0879 101.672 10.8262C101.326 11.5645 100.829 12.1341 100.182 12.5352C99.5391 12.9362 98.8008 13.1367 97.9668 13.1367C97.1419 13.1367 96.4059 12.9385 95.7588 12.542C95.1117 12.1455 94.6104 11.5804 94.2549 10.8467C93.8994 10.1084 93.7194 9.26074 93.7148 8.30371V7.81152C93.7148 6.83171 93.8903 5.97038 94.2412 5.22754C94.5967 4.48014 95.0957 3.9082 95.7383 3.51172C96.3854 3.11068 97.1237 2.91016 97.9531 2.91016C98.7826 2.91016 99.5186 3.11068 100.161 3.51172C100.808 3.9082 101.307 4.48014 101.658 5.22754C102.014 5.97038 102.191 6.82943 102.191 7.80469V8.24902ZM100.113 7.79785C100.113 6.75423 99.9264 5.96126 99.5527 5.41895C99.179 4.87663 98.6458 4.60547 97.9531 4.60547C97.265 4.60547 96.734 4.87435 96.3604 5.41211C95.9867 5.94531 95.7975 6.72917 95.793 7.76367V8.24902C95.793 9.2653 95.9798 10.0537 96.3535 10.6143C96.7272 11.1748 97.265 11.4551 97.9668 11.4551C98.6549 11.4551 99.1836 11.1862 99.5527 10.6484C99.9219 10.1061 100.109 9.31771 100.113 8.2832V7.79785ZM103.23 15.4951L102.198 14.9551L102.444 14.5107C102.75 13.9548 102.907 13.401 102.916 12.8496V11.3184H104.584L104.577 12.6855C104.573 13.1914 104.445 13.7018 104.194 14.2168C103.944 14.7318 103.622 15.1579 103.23 15.4951ZM113.437 9.35645H111.803V13H109.752V3.04688H113.45C114.626 3.04688 115.533 3.30892 116.171 3.83301C116.809 4.3571 117.128 5.09766 117.128 6.05469C117.128 6.73372 116.98 7.30111 116.684 7.75684C116.392 8.20801 115.948 8.56803 115.351 8.83691L117.504 12.9043V13H115.303L113.437 9.35645ZM111.803 7.69531H113.457C113.972 7.69531 114.371 7.56543 114.653 7.30566C114.936 7.04134 115.077 6.67904 115.077 6.21875C115.077 5.74935 114.943 5.38021 114.674 5.11133C114.41 4.84245 114.002 4.70801 113.45 4.70801H111.803V7.69531ZM124.682 8.68652H120.744V11.3525H125.365V13H118.693V3.04688H125.352V4.70801H120.744V7.08008H124.682V8.68652ZM134.197 4.70801H131.148V13H129.098V4.70801H126.09V3.04688H134.197V4.70801ZM137.554 13H135.503V3.04688H137.554V13ZM147.555 13H145.504L141.512 6.45117V13H139.461V3.04688H141.512L145.511 9.60938V3.04688H147.555V13ZM155.088 10.9492H151.492L150.809 13H148.628L152.333 3.04688H154.233L157.959 13H155.778L155.088 10.9492ZM152.046 9.28809H154.534L153.283 5.5625L152.046 9.28809ZM168.363 8.68652H164.426V11.3525H169.047V13H162.375V3.04688H169.033V4.70801H164.426V7.08008H168.363V8.68652ZM172.301 11.3525H176.655V13H170.25V3.04688H172.301V11.3525ZM183.375 9.49316V13H181.324V3.04688H185.207C185.954 3.04688 186.611 3.18359 187.176 3.45703C187.745 3.73047 188.183 4.12012 188.488 4.62598C188.794 5.12728 188.946 5.69922 188.946 6.3418C188.946 7.31706 188.611 8.08724 187.941 8.65234C187.276 9.21289 186.353 9.49316 185.173 9.49316H183.375ZM183.375 7.83203H185.207C185.749 7.83203 186.162 7.70443 186.444 7.44922C186.731 7.19401 186.875 6.82943 186.875 6.35547C186.875 5.86784 186.731 5.47363 186.444 5.17285C186.157 4.87207 185.761 4.71712 185.255 4.70801H183.375V7.83203ZM194.764 10.9492H191.168L190.484 13H188.304L192.009 3.04688H193.909L197.635 13H195.454L194.764 10.9492ZM191.722 9.28809H194.21L192.959 5.5625L191.722 9.28809ZM200.745 13H198.694V3.04688H200.745V13ZM200.109 0.360352H202.263L200.369 2.47949H198.763L200.109 0.360352ZM207.813 10.3887C207.813 10.0013 207.677 9.70508 207.403 9.5C207.13 9.29036 206.638 9.07161 205.927 8.84375C205.216 8.61133 204.653 8.38346 204.238 8.16016C203.108 7.54948 202.543 6.72689 202.543 5.69238C202.543 5.15462 202.693 4.67611 202.994 4.25684C203.299 3.83301 203.735 3.5026 204.3 3.26562C204.869 3.02865 205.507 2.91016 206.214 2.91016C206.925 2.91016 207.558 3.04004 208.114 3.2998C208.67 3.55501 209.101 3.91732 209.406 4.38672C209.716 4.85612 209.871 5.38932 209.871 5.98633H207.82C207.82 5.5306 207.677 5.17741 207.39 4.92676C207.103 4.67155 206.699 4.54395 206.18 4.54395C205.678 4.54395 205.289 4.65104 205.011 4.86523C204.733 5.07487 204.594 5.35286 204.594 5.69922C204.594 6.02279 204.756 6.29395 205.079 6.5127C205.407 6.73145 205.888 6.93652 206.521 7.12793C207.688 7.47884 208.538 7.91406 209.071 8.43359C209.604 8.95312 209.871 9.60026 209.871 10.375C209.871 11.2363 209.545 11.9131 208.894 12.4053C208.242 12.8929 207.365 13.1367 206.262 13.1367C205.496 13.1367 204.799 12.9977 204.17 12.7197C203.541 12.4372 203.06 12.0521 202.728 11.5645C202.399 11.0768 202.235 10.5117 202.235 9.86914H204.293C204.293 10.9674 204.949 11.5166 206.262 11.5166C206.749 11.5166 207.13 11.4186 207.403 11.2227C207.677 11.0221 207.813 10.7441 207.813 10.3887Z" fill="black"/>
</g>
<defs>
<filter id="filter0_d" x="0.0478516" y="0.360352" width="213.823" height="23.1348" filterUnits="userSpaceOnUse" color-interpolation-filters="sRGB">
<feFlood flood-opacity="0" result="BackgroundImageFix"/>
<feColorMatrix in="SourceAlpha" type="matrix" values="0 0 0 0 0 0 0 0 0 0 0 0 0 0 0 0 0 0 127 0"/>
<feOffset dy="4"/>
<feGaussianBlur stdDeviation="2"/>
<feColorMatrix type="matrix" values="0 0 0 0 0.984314 0 0 0 0 0.992157 0 0 0 0 0.419608 0 0 0 1 0"/>
<feBlend mode="normal" in2="BackgroundImageFix" result="effect1_dropShadow"/>
<feBlend mode="normal" in="SourceGraphic" in2="effect1_dropShadow" result="shape"/>
</filter>
</defs>
</svg>
