<svg width="67" height="20" viewBox="0 0 67 20" fill="none" xmlns="http://www.w3.org/2000/svg">
<g filter="url(#filter0_d)">
<path d="M4.88867 11V1.04688H8.375C9.58268 1.04688 10.4987 1.2793 11.123 1.74414C11.7474 2.20443 12.0596 2.88118 12.0596 3.77441C12.0596 4.26204 11.9342 4.69271 11.6836 5.06641C11.4329 5.43555 11.0843 5.70671 10.6377 5.87988C11.1481 6.00749 11.5492 6.26497 11.8408 6.65234C12.137 7.03971 12.2852 7.51367 12.2852 8.07422C12.2852 9.03125 11.9798 9.75586 11.3691 10.248C10.7585 10.7402 9.88802 10.9909 8.75781 11H4.88867ZM6.93945 6.66602V9.35254H8.69629C9.17936 9.35254 9.55534 9.23861 9.82422 9.01074C10.0977 8.77832 10.2344 8.45931 10.2344 8.05371C10.2344 7.14225 9.7627 6.67969 8.81934 6.66602H6.93945ZM6.93945 5.2168H8.45703C9.49154 5.19857 10.0088 4.78613 10.0088 3.97949C10.0088 3.52832 9.87663 3.20475 9.6123 3.00879C9.35254 2.80827 8.9401 2.70801 8.375 2.70801H6.93945V5.2168ZM17.542 7.53418H13.6934V5.94141H17.542V7.53418ZM23.2705 1.04688H25.3213V7.9375C25.3213 8.57096 25.18 9.13151 24.8975 9.61914C24.6195 10.1022 24.2253 10.4759 23.7148 10.7402C23.2044 11.0046 22.6279 11.1367 21.9854 11.1367C20.9326 11.1367 20.1123 10.8701 19.5244 10.3369C18.9365 9.79915 18.6426 9.04036 18.6426 8.06055H20.707C20.707 8.54818 20.8096 8.9082 21.0146 9.14062C21.2197 9.37305 21.5433 9.48926 21.9854 9.48926C22.3773 9.48926 22.6895 9.35482 22.9219 9.08594C23.1543 8.81706 23.2705 8.43424 23.2705 7.9375V1.04688ZM29.252 9.35254H34.2695V11H26.6885V9.79688L31.6104 2.70801H26.6953V1.04688H34.1602V2.22266L29.252 9.35254ZM43.5664 6.24902C43.5664 7.22884 43.3932 8.08789 43.0469 8.82617C42.7005 9.56445 42.2038 10.1341 41.5566 10.5352C40.9141 10.9362 40.1758 11.1367 39.3418 11.1367C38.5169 11.1367 37.7809 10.9385 37.1338 10.542C36.4867 10.1455 35.9854 9.5804 35.6299 8.84668C35.2744 8.1084 35.0944 7.26074 35.0898 6.30371V5.81152C35.0898 4.83171 35.2653 3.97038 35.6162 3.22754C35.9717 2.48014 36.4707 1.9082 37.1133 1.51172C37.7604 1.11068 38.4987 0.910156 39.3281 0.910156C40.1576 0.910156 40.8936 1.11068 41.5361 1.51172C42.1833 1.9082 42.6823 2.48014 43.0332 3.22754C43.3887 3.97038 43.5664 4.82943 43.5664 5.80469V6.24902ZM41.4883 5.79785C41.4883 4.75423 41.3014 3.96126 40.9277 3.41895C40.554 2.87663 40.0208 2.60547 39.3281 2.60547C38.64 2.60547 38.109 2.87435 37.7354 3.41211C37.3617 3.94531 37.1725 4.72917 37.168 5.76367V6.24902C37.168 7.2653 37.3548 8.05371 37.7285 8.61426C38.1022 9.1748 38.64 9.45508 39.3418 9.45508C40.0299 9.45508 40.5586 9.1862 40.9277 8.64844C41.2969 8.10612 41.4837 7.31771 41.4883 6.2832V5.79785ZM53.2324 6.24902C53.2324 7.22884 53.0592 8.08789 52.7129 8.82617C52.3665 9.56445 51.8698 10.1341 51.2227 10.5352C50.5801 10.9362 49.8418 11.1367 49.0078 11.1367C48.1829 11.1367 47.4469 10.9385 46.7998 10.542C46.1527 10.1455 45.6514 9.5804 45.2959 8.84668C44.9404 8.1084 44.7604 7.26074 44.7559 6.30371V5.81152C44.7559 4.83171 44.9313 3.97038 45.2822 3.22754C45.6377 2.48014 46.1367 1.9082 46.7793 1.51172C47.4264 1.11068 48.1647 0.910156 48.9941 0.910156C49.8236 0.910156 50.5596 1.11068 51.2021 1.51172C51.8493 1.9082 52.3483 2.48014 52.6992 3.22754C53.0547 3.97038 53.2324 4.82943 53.2324 5.80469V6.24902ZM51.1543 5.79785C51.1543 4.75423 50.9674 3.96126 50.5938 3.41895C50.2201 2.87663 49.6868 2.60547 48.9941 2.60547C48.306 2.60547 47.7751 2.87435 47.4014 3.41211C47.0277 3.94531 46.8385 4.72917 46.834 5.76367V6.24902C46.834 7.2653 47.0208 8.05371 47.3945 8.61426C47.7682 9.1748 48.306 9.45508 49.0078 9.45508C49.696 9.45508 50.2246 9.1862 50.5938 8.64844C50.9629 8.10612 51.1497 7.31771 51.1543 6.2832V5.79785ZM62.8164 11H60.7656L56.7734 4.45117V11H54.7227V1.04688H56.7734L60.7725 7.60938V1.04688H62.8164V11Z" fill="black"/>
</g>
<defs>
<filter id="filter0_d" x="0.888672" y="0.910156" width="65.9277" height="18.2266" filterUnits="userSpaceOnUse" color-interpolation-filters="sRGB">
<feFlood flood-opacity="0" result="BackgroundImageFix"/>
<feColorMatrix in="SourceAlpha" type="matrix" values="0 0 0 0 0 0 0 0 0 0 0 0 0 0 0 0 0 0 127 0"/>
<feOffset dy="4"/>
<feGaussianBlur stdDeviation="2"/>
<feColorMatrix type="matrix" values="0 0 0 0 0.984314 0 0 0 0 0.992157 0 0 0 0 0.419608 0 0 0 1 0"/>
<feBlend mode="normal" in2="BackgroundImageFix" result="effect1_dropShadow"/>
<feBlend mode="normal" in="SourceGraphic" in2="effect1_dropShadow" result="shape"/>
</filter>
</defs>
</svg>
