<svg width="225" height="24" viewBox="0 0 225 24" fill="none" xmlns="http://www.w3.org/2000/svg">
<g filter="url(#filter0_d)">
<path d="M4.88867 13V3.04688H8.375C9.58268 3.04688 10.4987 3.2793 11.123 3.74414C11.7474 4.20443 12.0596 4.88118 12.0596 5.77441C12.0596 6.26204 11.9342 6.69271 11.6836 7.06641C11.4329 7.43555 11.0843 7.70671 10.6377 7.87988C11.1481 8.00749 11.5492 8.26497 11.8408 8.65234C12.137 9.03971 12.2852 9.51367 12.2852 10.0742C12.2852 11.0312 11.9798 11.7559 11.3691 12.248C10.7585 12.7402 9.88802 12.9909 8.75781 13H4.88867ZM6.93945 8.66602V11.3525H8.69629C9.17936 11.3525 9.55534 11.2386 9.82422 11.0107C10.0977 10.7783 10.2344 10.4593 10.2344 10.0537C10.2344 9.14225 9.7627 8.67969 8.81934 8.66602H6.93945ZM6.93945 7.2168H8.45703C9.49154 7.19857 10.0088 6.78613 10.0088 5.97949C10.0088 5.52832 9.87663 5.20475 9.6123 5.00879C9.35254 4.80827 8.9401 4.70801 8.375 4.70801H6.93945V7.2168ZM19.4492 10.9492H15.8535L15.1699 13H12.9893L16.6943 3.04688H18.5947L22.3203 13H20.1396L19.4492 10.9492ZM16.4072 9.28809H18.8955L17.6445 5.5625L16.4072 9.28809ZM23.25 13V3.04688H26.3125C27.1875 3.04688 27.9691 3.24512 28.6572 3.6416C29.3499 4.03353 29.89 4.59408 30.2773 5.32324C30.6647 6.04785 30.8584 6.87272 30.8584 7.79785V8.25586C30.8584 9.18099 30.667 10.0036 30.2842 10.7236C29.9059 11.4437 29.3704 12.002 28.6777 12.3984C27.985 12.7949 27.2035 12.9954 26.333 13H23.25ZM25.3008 4.70801V11.3525H26.292C27.0941 11.3525 27.707 11.0905 28.1309 10.5664C28.5547 10.0423 28.7712 9.29264 28.7803 8.31738V7.79102C28.7803 6.7793 28.5706 6.01367 28.1514 5.49414C27.7321 4.97005 27.1191 4.70801 26.3125 4.70801H25.3008ZM43.7168 11.7422C43.3477 12.1842 42.8258 12.5283 42.1514 12.7744C41.4769 13.016 40.7295 13.1367 39.9092 13.1367C39.0479 13.1367 38.2913 12.9499 37.6396 12.5762C36.9925 12.1979 36.4912 11.651 36.1357 10.9355C35.7848 10.2201 35.6048 9.37923 35.5957 8.41309V7.73633C35.5957 6.74284 35.762 5.88379 36.0947 5.15918C36.432 4.43001 36.915 3.87402 37.5439 3.49121C38.1774 3.10384 38.918 2.91016 39.7656 2.91016C40.946 2.91016 41.8688 3.19271 42.5342 3.75781C43.1995 4.31836 43.5938 5.13639 43.7168 6.21191H41.7207C41.6296 5.64225 41.4268 5.22526 41.1123 4.96094C40.8024 4.69661 40.374 4.56445 39.8271 4.56445C39.1299 4.56445 38.599 4.8265 38.2344 5.35059C37.8698 5.87467 37.6852 6.65397 37.6807 7.68848V8.32422C37.6807 9.36784 37.8789 10.1562 38.2754 10.6895C38.6719 11.2227 39.2529 11.4893 40.0186 11.4893C40.7887 11.4893 41.3379 11.3252 41.666 10.9971V9.28125H39.7998V7.77051H43.7168V11.7422ZM48.8164 7.53125L50.8877 3.04688H53.1299L49.8623 9.39062V13H47.7773V9.39062L44.5098 3.04688H46.7588L48.8164 7.53125ZM58.6328 10.9492H55.0371L54.3535 13H52.1729L55.8779 3.04688H57.7783L61.5039 13H59.3232L58.6328 10.9492ZM55.5908 9.28809H58.0791L56.8281 5.5625L55.5908 9.28809ZM64.4844 11.3525H68.8389V13H62.4336V3.04688H64.4844V11.3525ZM70.4043 15.4951L69.3721 14.9551L69.6182 14.5107C69.9235 13.9548 70.0807 13.401 70.0898 12.8496V11.3184H71.7578L71.751 12.6855C71.7464 13.1914 71.6188 13.7018 71.3682 14.2168C71.1175 14.7318 70.7962 15.1579 70.4043 15.4951ZM84.0078 4.70801H80.959V13H78.9082V4.70801H75.9004V3.04688H84.0078V4.70801ZM91.1719 8.68652H87.2344V11.3525H91.8555V13H85.1836V3.04688H91.8418V4.70801H87.2344V7.08008H91.1719V8.68652ZM101.152 13H99.1016L95.1094 6.45117V13H93.0586V3.04688H95.1094L99.1084 9.60938V3.04688H101.152V13ZM110.23 4.70801H107.182V13H105.131V4.70801H102.123V3.04688H110.23V4.70801ZM116.205 10.9492H112.609L111.926 13H109.745L113.45 3.04688H115.351L119.076 13H116.896L116.205 10.9492ZM113.163 9.28809H115.651L114.4 5.5625L113.163 9.28809ZM127.669 9.68457C127.591 10.7555 127.195 11.5986 126.479 12.2139C125.769 12.8291 124.83 13.1367 123.663 13.1367C122.387 13.1367 121.382 12.7083 120.648 11.8516C119.919 10.9902 119.555 9.8099 119.555 8.31055V7.70215C119.555 6.74512 119.723 5.90202 120.061 5.17285C120.398 4.44368 120.879 3.88542 121.503 3.49805C122.132 3.10612 122.861 2.91016 123.69 2.91016C124.839 2.91016 125.764 3.21777 126.466 3.83301C127.168 4.44824 127.573 5.31185 127.683 6.42383H125.632C125.582 5.78125 125.402 5.31641 125.092 5.0293C124.786 4.73763 124.319 4.5918 123.69 4.5918C123.007 4.5918 122.494 4.83789 122.152 5.33008C121.815 5.81771 121.642 6.5765 121.633 7.60645V8.3584C121.633 9.43392 121.795 10.2201 122.118 10.7168C122.446 11.2135 122.961 11.4619 123.663 11.4619C124.297 11.4619 124.768 11.3184 125.078 11.0312C125.393 10.7396 125.573 10.2907 125.618 9.68457H127.669ZM131.196 13H129.146V3.04688H131.196V13ZM141.279 8.24902C141.279 9.22884 141.106 10.0879 140.76 10.8262C140.413 11.5645 139.917 12.1341 139.27 12.5352C138.627 12.9362 137.889 13.1367 137.055 13.1367C136.23 13.1367 135.494 12.9385 134.847 12.542C134.2 12.1455 133.698 11.5804 133.343 10.8467C132.987 10.1084 132.807 9.26074 132.803 8.30371V7.81152C132.803 6.83171 132.978 5.97038 133.329 5.22754C133.685 4.48014 134.184 3.9082 134.826 3.51172C135.473 3.11068 136.212 2.91016 137.041 2.91016C137.87 2.91016 138.606 3.11068 139.249 3.51172C139.896 3.9082 140.395 4.48014 140.746 5.22754C141.102 5.97038 141.279 6.82943 141.279 7.80469V8.24902ZM139.201 7.79785C139.201 6.75423 139.014 5.96126 138.641 5.41895C138.267 4.87663 137.734 4.60547 137.041 4.60547C136.353 4.60547 135.822 4.87435 135.448 5.41211C135.075 5.94531 134.885 6.72917 134.881 7.76367V8.24902C134.881 9.2653 135.068 10.0537 135.441 10.6143C135.815 11.1748 136.353 11.4551 137.055 11.4551C137.743 11.4551 138.271 11.1862 138.641 10.6484C139.01 10.1061 139.197 9.31771 139.201 8.2832V7.79785ZM150.863 13H148.812L144.82 6.45117V13H142.77V3.04688H144.82L148.819 9.60938V3.04688H150.863V13ZM158.643 8.68652H154.705V11.3525H159.326V13H152.654V3.04688H159.312V4.70801H154.705V7.08008H158.643V8.68652ZM165.69 10.3887C165.69 10.0013 165.554 9.70508 165.28 9.5C165.007 9.29036 164.515 9.07161 163.804 8.84375C163.093 8.61133 162.53 8.38346 162.115 8.16016C160.985 7.54948 160.42 6.72689 160.42 5.69238C160.42 5.15462 160.57 4.67611 160.871 4.25684C161.176 3.83301 161.612 3.5026 162.177 3.26562C162.746 3.02865 163.384 2.91016 164.091 2.91016C164.802 2.91016 165.435 3.04004 165.991 3.2998C166.547 3.55501 166.978 3.91732 167.283 4.38672C167.593 4.85612 167.748 5.38932 167.748 5.98633H165.697C165.697 5.5306 165.554 5.17741 165.267 4.92676C164.979 4.67155 164.576 4.54395 164.057 4.54395C163.555 4.54395 163.166 4.65104 162.888 4.86523C162.61 5.07487 162.471 5.35286 162.471 5.69922C162.471 6.02279 162.632 6.29395 162.956 6.5127C163.284 6.73145 163.765 6.93652 164.398 7.12793C165.565 7.47884 166.415 7.91406 166.948 8.43359C167.481 8.95312 167.748 9.60026 167.748 10.375C167.748 11.2363 167.422 11.9131 166.771 12.4053C166.119 12.8929 165.242 13.1367 164.139 13.1367C163.373 13.1367 162.676 12.9977 162.047 12.7197C161.418 12.4372 160.937 12.0521 160.604 11.5645C160.276 11.0768 160.112 10.5117 160.112 9.86914H162.17C162.17 10.9674 162.826 11.5166 164.139 11.5166C164.626 11.5166 165.007 11.4186 165.28 11.2227C165.554 11.0221 165.69 10.7441 165.69 10.3887ZM178.617 8.68652H174.68V11.3525H179.301V13H172.629V3.04688H179.287V4.70801H174.68V7.08008H178.617V8.68652ZM182.555 11.3525H186.909V13H180.504V3.04688H182.555V11.3525ZM193.629 9.49316V13H191.578V3.04688H195.461C196.208 3.04688 196.865 3.18359 197.43 3.45703C197.999 3.73047 198.437 4.12012 198.742 4.62598C199.048 5.12728 199.2 5.69922 199.2 6.3418C199.2 7.31706 198.865 8.08724 198.195 8.65234C197.53 9.21289 196.607 9.49316 195.427 9.49316H193.629ZM193.629 7.83203H195.461C196.003 7.83203 196.416 7.70443 196.698 7.44922C196.985 7.19401 197.129 6.82943 197.129 6.35547C197.129 5.86784 196.985 5.47363 196.698 5.17285C196.411 4.87207 196.015 4.71712 195.509 4.70801H193.629V7.83203ZM205.018 10.9492H201.422L200.738 13H198.558L202.263 3.04688H204.163L207.889 13H205.708L205.018 10.9492ZM201.976 9.28809H204.464L203.213 5.5625L201.976 9.28809ZM210.999 13H208.948V3.04688H210.999V13ZM210.363 0.360352H212.517L210.623 2.47949H209.017L210.363 0.360352ZM218.067 10.3887C218.067 10.0013 217.931 9.70508 217.657 9.5C217.384 9.29036 216.892 9.07161 216.181 8.84375C215.47 8.61133 214.907 8.38346 214.492 8.16016C213.362 7.54948 212.797 6.72689 212.797 5.69238C212.797 5.15462 212.947 4.67611 213.248 4.25684C213.553 3.83301 213.989 3.5026 214.554 3.26562C215.123 3.02865 215.761 2.91016 216.468 2.91016C217.179 2.91016 217.812 3.04004 218.368 3.2998C218.924 3.55501 219.355 3.91732 219.66 4.38672C219.97 4.85612 220.125 5.38932 220.125 5.98633H218.074C218.074 5.5306 217.931 5.17741 217.644 4.92676C217.356 4.67155 216.953 4.54395 216.434 4.54395C215.932 4.54395 215.543 4.65104 215.265 4.86523C214.987 5.07487 214.848 5.35286 214.848 5.69922C214.848 6.02279 215.009 6.29395 215.333 6.5127C215.661 6.73145 216.142 6.93652 216.775 7.12793C217.942 7.47884 218.792 7.91406 219.325 8.43359C219.858 8.95312 220.125 9.60026 220.125 10.375C220.125 11.2363 219.799 11.9131 219.147 12.4053C218.496 12.8929 217.618 13.1367 216.516 13.1367C215.75 13.1367 215.053 12.9977 214.424 12.7197C213.795 12.4372 213.314 12.0521 212.981 11.5645C212.653 11.0768 212.489 10.5117 212.489 9.86914H214.547C214.547 10.9674 215.203 11.5166 216.516 11.5166C217.003 11.5166 217.384 11.4186 217.657 11.2227C217.931 11.0221 218.067 10.7441 218.067 10.3887Z" fill="black"/>
</g>
<defs>
<filter id="filter0_d" x="0.888672" y="0.360352" width="223.236" height="23.1348" filterUnits="userSpaceOnUse" color-interpolation-filters="sRGB">
<feFlood flood-opacity="0" result="BackgroundImageFix"/>
<feColorMatrix in="SourceAlpha" type="matrix" values="0 0 0 0 0 0 0 0 0 0 0 0 0 0 0 0 0 0 127 0"/>
<feOffset dy="4"/>
<feGaussianBlur stdDeviation="2"/>
<feColorMatrix type="matrix" values="0 0 0 0 0.984314 0 0 0 0 0.992157 0 0 0 0 0.419608 0 0 0 1 0"/>
<feBlend mode="normal" in2="BackgroundImageFix" result="effect1_dropShadow"/>
<feBlend mode="normal" in="SourceGraphic" in2="effect1_dropShadow" result="shape"/>
</filter>
</defs>
</svg>
