<svg width="233" height="24" viewBox="0 0 233 24" fill="none" xmlns="http://www.w3.org/2000/svg">
<g filter="url(#filter0_d)">
<path d="M12.7637 11.7422C12.3945 12.1842 11.8727 12.5283 11.1982 12.7744C10.5238 13.016 9.77637 13.1367 8.95605 13.1367C8.09473 13.1367 7.33822 12.9499 6.68652 12.5762C6.03939 12.1979 5.53809 11.651 5.18262 10.9355C4.83171 10.2201 4.65169 9.37923 4.64258 8.41309V7.73633C4.64258 6.74284 4.80892 5.88379 5.1416 5.15918C5.47884 4.43001 5.96191 3.87402 6.59082 3.49121C7.22428 3.10384 7.96484 2.91016 8.8125 2.91016C9.99284 2.91016 10.9157 3.19271 11.5811 3.75781C12.2464 4.31836 12.6406 5.13639 12.7637 6.21191H10.7676C10.6764 5.64225 10.4736 5.22526 10.1592 4.96094C9.84928 4.69661 9.4209 4.56445 8.87402 4.56445C8.17676 4.56445 7.64583 4.8265 7.28125 5.35059C6.91667 5.87467 6.7321 6.65397 6.72754 7.68848V8.32422C6.72754 9.36784 6.92578 10.1562 7.32227 10.6895C7.71875 11.2227 8.2998 11.4893 9.06543 11.4893C9.83561 11.4893 10.3848 11.3252 10.7129 10.9971V9.28125H8.84668V7.77051H12.7637V11.7422ZM20.4199 8.68652H16.4824V11.3525H21.1035V13H14.4316V3.04688H21.0898V4.70801H16.4824V7.08008H20.4199V8.68652ZM25.9912 9.35645H24.3574V13H22.3066V3.04688H26.0049C27.1807 3.04688 28.0876 3.30892 28.7256 3.83301C29.3636 4.3571 29.6826 5.09766 29.6826 6.05469C29.6826 6.73372 29.5345 7.30111 29.2383 7.75684C28.9466 8.20801 28.5023 8.56803 27.9053 8.83691L30.0586 12.9043V13H27.8574L25.9912 9.35645ZM24.3574 7.69531H26.0117C26.5267 7.69531 26.9255 7.56543 27.208 7.30566C27.4906 7.04134 27.6318 6.67904 27.6318 6.21875C27.6318 5.74935 27.4974 5.38021 27.2285 5.11133C26.9642 4.84245 26.5563 4.70801 26.0049 4.70801H24.3574V7.69531ZM33.9277 3.04688L36.4844 10.2656L39.0273 3.04688H41.7207V13H39.6631V10.2793L39.8682 5.58301L37.1816 13H35.7734L33.0938 5.58984L33.2988 10.2793V13H31.248V3.04688H33.9277ZM49.2539 10.9492H45.6582L44.9746 13H42.7939L46.499 3.04688H48.3994L52.125 13H49.9443L49.2539 10.9492ZM46.2119 9.28809H48.7002L47.4492 5.5625L46.2119 9.28809ZM47.873 0.380859H50.0264L48.1328 2.5H46.5264L47.873 0.380859ZM61.1484 13H59.0977L55.1055 6.45117V13H53.0547V3.04688H55.1055L59.1045 9.60938V3.04688H61.1484V13ZM72.0449 10.9492H68.4492L67.7656 13H65.585L69.29 3.04688H71.1904L74.916 13H72.7354L72.0449 10.9492ZM69.0029 9.28809H71.4912L70.2402 5.5625L69.0029 9.28809ZM77.8965 11.3525H82.251V13H75.8457V3.04688H77.8965V11.3525ZM90.8096 9.68457C90.7321 10.7555 90.3356 11.5986 89.6201 12.2139C88.9092 12.8291 87.9704 13.1367 86.8037 13.1367C85.5277 13.1367 84.5228 12.7083 83.7891 11.8516C83.0599 10.9902 82.6953 9.8099 82.6953 8.31055V7.70215C82.6953 6.74512 82.8639 5.90202 83.2012 5.17285C83.5384 4.44368 84.0192 3.88542 84.6436 3.49805C85.2725 3.10612 86.0016 2.91016 86.8311 2.91016C87.9795 2.91016 88.9046 3.21777 89.6064 3.83301C90.3083 4.44824 90.7139 5.31185 90.8232 6.42383H88.7725C88.7223 5.78125 88.5423 5.31641 88.2324 5.0293C87.9271 4.73763 87.46 4.5918 86.8311 4.5918C86.1475 4.5918 85.6348 4.83789 85.293 5.33008C84.9557 5.81771 84.7826 6.5765 84.7734 7.60645V8.3584C84.7734 9.43392 84.9352 10.2201 85.2588 10.7168C85.5869 11.2135 86.1019 11.4619 86.8037 11.4619C87.4372 11.4619 87.9089 11.3184 88.2188 11.0312C88.5332 10.7396 88.7132 10.2907 88.7588 9.68457H90.8096ZM97.7754 10.9492H94.1797L93.4961 13H91.3154L95.0205 3.04688H96.9209L100.646 13H98.4658L97.7754 10.9492ZM94.7334 9.28809H97.2217L95.9707 5.5625L94.7334 9.28809ZM105.261 9.35645H103.627V13H101.576V3.04688H105.274C106.45 3.04688 107.357 3.30892 107.995 3.83301C108.633 4.3571 108.952 5.09766 108.952 6.05469C108.952 6.73372 108.804 7.30111 108.508 7.75684C108.216 8.20801 107.772 8.56803 107.175 8.83691L109.328 12.9043V13H107.127L105.261 9.35645ZM103.627 7.69531H105.281C105.796 7.69531 106.195 7.56543 106.478 7.30566C106.76 7.04134 106.901 6.67904 106.901 6.21875C106.901 5.74935 106.767 5.38021 106.498 5.11133C106.234 4.84245 105.826 4.70801 105.274 4.70801H103.627V7.69531ZM116.137 10.9492H112.541L111.857 13H109.677L113.382 3.04688H115.282L119.008 13H116.827L116.137 10.9492ZM113.095 9.28809H115.583L114.332 5.5625L113.095 9.28809ZM122.111 11.3525H127.129V13H119.548V11.7969L124.47 4.70801H119.555V3.04688H127.02V4.22266L122.111 11.3525ZM135.961 3.04688V9.60254C135.961 10.6917 135.619 11.5531 134.936 12.1865C134.257 12.82 133.327 13.1367 132.146 13.1367C130.984 13.1367 130.062 12.8291 129.378 12.2139C128.694 11.5986 128.346 10.7533 128.332 9.67773V3.04688H130.383V9.61621C130.383 10.2679 130.538 10.7441 130.848 11.0449C131.162 11.3411 131.595 11.4893 132.146 11.4893C133.299 11.4893 133.885 10.8831 133.903 9.6709V3.04688H135.961ZM138.025 15.4951L136.993 14.9551L137.239 14.5107C137.545 13.9548 137.702 13.401 137.711 12.8496V11.3184H139.379L139.372 12.6855C139.368 13.1914 139.24 13.7018 138.989 14.2168C138.739 14.7318 138.417 15.1579 138.025 15.4951ZM146.728 13H144.677V3.04688H146.728V13ZM156.448 9.68457C156.371 10.7555 155.974 11.5986 155.259 12.2139C154.548 12.8291 153.609 13.1367 152.442 13.1367C151.166 13.1367 150.161 12.7083 149.428 11.8516C148.699 10.9902 148.334 9.8099 148.334 8.31055V7.70215C148.334 6.74512 148.503 5.90202 148.84 5.17285C149.177 4.44368 149.658 3.88542 150.282 3.49805C150.911 3.10612 151.64 2.91016 152.47 2.91016C153.618 2.91016 154.543 3.21777 155.245 3.83301C155.947 4.44824 156.353 5.31185 156.462 6.42383H154.411C154.361 5.78125 154.181 5.31641 153.871 5.0293C153.566 4.73763 153.099 4.5918 152.47 4.5918C151.786 4.5918 151.273 4.83789 150.932 5.33008C150.594 5.81771 150.421 6.5765 150.412 7.60645V8.3584C150.412 9.43392 150.574 10.2201 150.897 10.7168C151.226 11.2135 151.741 11.4619 152.442 11.4619C153.076 11.4619 153.548 11.3184 153.857 11.0312C154.172 10.7396 154.352 10.2907 154.397 9.68457H156.448ZM165.971 8.24902C165.971 9.22884 165.798 10.0879 165.451 10.8262C165.105 11.5645 164.608 12.1341 163.961 12.5352C163.318 12.9362 162.58 13.1367 161.746 13.1367C160.921 13.1367 160.185 12.9385 159.538 12.542C158.891 12.1455 158.39 11.5804 158.034 10.8467C157.679 10.1084 157.499 9.26074 157.494 8.30371V7.81152C157.494 6.83171 157.67 5.97038 158.021 5.22754C158.376 4.48014 158.875 3.9082 159.518 3.51172C160.165 3.11068 160.903 2.91016 161.732 2.91016C162.562 2.91016 163.298 3.11068 163.94 3.51172C164.588 3.9082 165.087 4.48014 165.438 5.22754C165.793 5.97038 165.971 6.82943 165.971 7.80469V8.24902ZM163.893 7.79785C163.893 6.75423 163.706 5.96126 163.332 5.41895C162.958 4.87663 162.425 4.60547 161.732 4.60547C161.044 4.60547 160.513 4.87435 160.14 5.41211C159.766 5.94531 159.577 6.72917 159.572 7.76367V8.24902C159.572 9.2653 159.759 10.0537 160.133 10.6143C160.507 11.1748 161.044 11.4551 161.746 11.4551C162.434 11.4551 162.963 11.1862 163.332 10.6484C163.701 10.1061 163.888 9.31771 163.893 8.2832V7.79785ZM175.555 13H173.504L169.512 6.45117V13H167.461V3.04688H169.512L173.511 9.60938V3.04688H175.555V13ZM186.82 8.68652H182.883V11.3525H187.504V13H180.832V3.04688H187.49V4.70801H182.883V7.08008H186.82V8.68652ZM190.758 11.3525H195.112V13H188.707V3.04688H190.758V11.3525ZM201.832 9.49316V13H199.781V3.04688H203.664C204.411 3.04688 205.068 3.18359 205.633 3.45703C206.202 3.73047 206.64 4.12012 206.945 4.62598C207.251 5.12728 207.403 5.69922 207.403 6.3418C207.403 7.31706 207.068 8.08724 206.398 8.65234C205.733 9.21289 204.81 9.49316 203.63 9.49316H201.832ZM201.832 7.83203H203.664C204.206 7.83203 204.619 7.70443 204.901 7.44922C205.188 7.19401 205.332 6.82943 205.332 6.35547C205.332 5.86784 205.188 5.47363 204.901 5.17285C204.614 4.87207 204.218 4.71712 203.712 4.70801H201.832V7.83203ZM213.221 10.9492H209.625L208.941 13H206.761L210.466 3.04688H212.366L216.092 13H213.911L213.221 10.9492ZM210.179 9.28809H212.667L211.416 5.5625L210.179 9.28809ZM219.202 13H217.151V3.04688H219.202V13ZM218.566 0.360352H220.72L218.826 2.47949H217.22L218.566 0.360352ZM226.271 10.3887C226.271 10.0013 226.134 9.70508 225.86 9.5C225.587 9.29036 225.095 9.07161 224.384 8.84375C223.673 8.61133 223.11 8.38346 222.695 8.16016C221.565 7.54948 221 6.72689 221 5.69238C221 5.15462 221.15 4.67611 221.451 4.25684C221.757 3.83301 222.192 3.5026 222.757 3.26562C223.326 3.02865 223.965 2.91016 224.671 2.91016C225.382 2.91016 226.015 3.04004 226.571 3.2998C227.127 3.55501 227.558 3.91732 227.863 4.38672C228.173 4.85612 228.328 5.38932 228.328 5.98633H226.277C226.277 5.5306 226.134 5.17741 225.847 4.92676C225.56 4.67155 225.156 4.54395 224.637 4.54395C224.135 4.54395 223.746 4.65104 223.468 4.86523C223.19 5.07487 223.051 5.35286 223.051 5.69922C223.051 6.02279 223.213 6.29395 223.536 6.5127C223.864 6.73145 224.345 6.93652 224.979 7.12793C226.145 7.47884 226.995 7.91406 227.528 8.43359C228.062 8.95312 228.328 9.60026 228.328 10.375C228.328 11.2363 228.002 11.9131 227.351 12.4053C226.699 12.8929 225.822 13.1367 224.719 13.1367C223.953 13.1367 223.256 12.9977 222.627 12.7197C221.998 12.4372 221.517 12.0521 221.185 11.5645C220.856 11.0768 220.692 10.5117 220.692 9.86914H222.75C222.75 10.9674 223.406 11.5166 224.719 11.5166C225.206 11.5166 225.587 11.4186 225.86 11.2227C226.134 11.0221 226.271 10.7441 226.271 10.3887Z" fill="black"/>
</g>
<defs>
<filter id="filter0_d" x="0.642578" y="0.360352" width="231.686" height="23.1348" filterUnits="userSpaceOnUse" color-interpolation-filters="sRGB">
<feFlood flood-opacity="0" result="BackgroundImageFix"/>
<feColorMatrix in="SourceAlpha" type="matrix" values="0 0 0 0 0 0 0 0 0 0 0 0 0 0 0 0 0 0 127 0"/>
<feOffset dy="4"/>
<feGaussianBlur stdDeviation="2"/>
<feColorMatrix type="matrix" values="0 0 0 0 0.984314 0 0 0 0 0.992157 0 0 0 0 0.419608 0 0 0 1 0"/>
<feBlend mode="normal" in2="BackgroundImageFix" result="effect1_dropShadow"/>
<feBlend mode="normal" in="SourceGraphic" in2="effect1_dropShadow" result="shape"/>
</filter>
</defs>
</svg>
