<svg width="285" height="24" viewBox="0 0 285 24" fill="none" xmlns="http://www.w3.org/2000/svg">
<g filter="url(#filter0_d)">
<path d="M6.06934 13H4.01855V3.04688H6.06934V13ZM16.0703 13H14.0195L10.0273 6.45117V13H7.97656V3.04688H10.0273L14.0264 9.60938V3.04688H16.0703V13ZM25.7363 11.7422C25.3672 12.1842 24.8454 12.5283 24.1709 12.7744C23.4964 13.016 22.749 13.1367 21.9287 13.1367C21.0674 13.1367 20.3109 12.9499 19.6592 12.5762C19.012 12.1979 18.5107 11.651 18.1553 10.9355C17.8044 10.2201 17.6243 9.37923 17.6152 8.41309V7.73633C17.6152 6.74284 17.7816 5.88379 18.1143 5.15918C18.4515 4.43001 18.9346 3.87402 19.5635 3.49121C20.1969 3.10384 20.9375 2.91016 21.7852 2.91016C22.9655 2.91016 23.8883 3.19271 24.5537 3.75781C25.2191 4.31836 25.6133 5.13639 25.7363 6.21191H23.7402C23.6491 5.64225 23.4463 5.22526 23.1318 4.96094C22.8219 4.69661 22.3936 4.56445 21.8467 4.56445C21.1494 4.56445 20.6185 4.8265 20.2539 5.35059C19.8893 5.87467 19.7048 6.65397 19.7002 7.68848V8.32422C19.7002 9.36784 19.8984 10.1562 20.2949 10.6895C20.6914 11.2227 21.2725 11.4893 22.0381 11.4893C22.8083 11.4893 23.3574 11.3252 23.6855 10.9971V9.28125H21.8193V7.77051H25.7363V11.7422ZM31.0889 9.35645H29.4551V13H27.4043V3.04688H31.1025C32.2783 3.04688 33.1852 3.30892 33.8232 3.83301C34.4613 4.3571 34.7803 5.09766 34.7803 6.05469C34.7803 6.73372 34.6322 7.30111 34.3359 7.75684C34.0443 8.20801 33.5999 8.56803 33.0029 8.83691L35.1562 12.9043V13H32.9551L31.0889 9.35645ZM29.4551 7.69531H31.1094C31.6243 7.69531 32.0231 7.56543 32.3057 7.30566C32.5882 7.04134 32.7295 6.67904 32.7295 6.21875C32.7295 5.74935 32.5951 5.38021 32.3262 5.11133C32.0618 4.84245 31.654 4.70801 31.1025 4.70801H29.4551V7.69531ZM38.5264 13H36.4756V3.04688H38.5264V13ZM40.4336 13V3.04688H43.4961C44.3711 3.04688 45.1527 3.24512 45.8408 3.6416C46.5335 4.03353 47.0736 4.59408 47.4609 5.32324C47.8483 6.04785 48.042 6.87272 48.042 7.79785V8.25586C48.042 9.18099 47.8506 10.0036 47.4678 10.7236C47.0895 11.4437 46.554 12.002 45.8613 12.3984C45.1686 12.7949 44.387 12.9954 43.5166 13H40.4336ZM42.4844 4.70801V11.3525H43.4756C44.2777 11.3525 44.8906 11.0905 45.3145 10.5664C45.7383 10.0423 45.9548 9.29264 45.9639 8.31738V7.79102C45.9639 6.7793 45.7542 6.01367 45.335 5.49414C44.9157 4.97005 44.3027 4.70801 43.4961 4.70801H42.4844ZM60.9004 11.7422C60.5312 12.1842 60.0094 12.5283 59.335 12.7744C58.6605 13.016 57.9131 13.1367 57.0928 13.1367C56.2314 13.1367 55.4749 12.9499 54.8232 12.5762C54.1761 12.1979 53.6748 11.651 53.3193 10.9355C52.9684 10.2201 52.7884 9.37923 52.7793 8.41309V7.73633C52.7793 6.74284 52.9456 5.88379 53.2783 5.15918C53.6156 4.43001 54.0986 3.87402 54.7275 3.49121C55.361 3.10384 56.1016 2.91016 56.9492 2.91016C58.1296 2.91016 59.0524 3.19271 59.7178 3.75781C60.3831 4.31836 60.7773 5.13639 60.9004 6.21191H58.9043C58.8132 5.64225 58.6104 5.22526 58.2959 4.96094C57.986 4.69661 57.5576 4.56445 57.0107 4.56445C56.3135 4.56445 55.7826 4.8265 55.418 5.35059C55.0534 5.87467 54.8688 6.65397 54.8643 7.68848V8.32422C54.8643 9.36784 55.0625 10.1562 55.459 10.6895C55.8555 11.2227 56.4365 11.4893 57.2021 11.4893C57.9723 11.4893 58.5215 11.3252 58.8496 10.9971V9.28125H56.9834V7.77051H60.9004V11.7422ZM68.1875 10.9492H64.5918L63.9082 13H61.7275L65.4326 3.04688H67.333L71.0586 13H68.8779L68.1875 10.9492ZM65.1455 9.28809H67.6338L66.3828 5.5625L65.1455 9.28809ZM75.6729 9.35645H74.0391V13H71.9883V3.04688H75.6865C76.8623 3.04688 77.7692 3.30892 78.4072 3.83301C79.0452 4.3571 79.3643 5.09766 79.3643 6.05469C79.3643 6.73372 79.2161 7.30111 78.9199 7.75684C78.6283 8.20801 78.1839 8.56803 77.5869 8.83691L79.7402 12.9043V13H77.5391L75.6729 9.35645ZM74.0391 7.69531H75.6934C76.2083 7.69531 76.6071 7.56543 76.8896 7.30566C77.1722 7.04134 77.3135 6.67904 77.3135 6.21875C77.3135 5.74935 77.179 5.38021 76.9102 5.11133C76.6458 4.84245 76.238 4.70801 75.6865 4.70801H74.0391V7.69531ZM88.7432 9.68457C88.6657 10.7555 88.2692 11.5986 87.5537 12.2139C86.8428 12.8291 85.904 13.1367 84.7373 13.1367C83.4613 13.1367 82.4564 12.7083 81.7227 11.8516C80.9935 10.9902 80.6289 9.8099 80.6289 8.31055V7.70215C80.6289 6.74512 80.7975 5.90202 81.1348 5.17285C81.472 4.44368 81.9528 3.88542 82.5771 3.49805C83.2061 3.10612 83.9352 2.91016 84.7646 2.91016C85.9131 2.91016 86.8382 3.21777 87.54 3.83301C88.2419 4.44824 88.6475 5.31185 88.7568 6.42383H86.7061C86.6559 5.78125 86.4759 5.31641 86.166 5.0293C85.8607 4.73763 85.3936 4.5918 84.7646 4.5918C84.0811 4.5918 83.5684 4.83789 83.2266 5.33008C82.8893 5.81771 82.7161 6.5765 82.707 7.60645V8.3584C82.707 9.43392 82.8688 10.2201 83.1924 10.7168C83.5205 11.2135 84.0355 11.4619 84.7373 11.4619C85.3708 11.4619 85.8424 11.3184 86.1523 11.0312C86.4668 10.7396 86.6468 10.2907 86.6924 9.68457H88.7432ZM92.2705 13H90.2197V3.04688H92.2705V13ZM91.6348 0.360352H93.7881L91.8945 2.47949H90.2881L91.6348 0.360352ZM99.9199 10.9492H96.3242L95.6406 13H93.46L97.165 3.04688H99.0654L102.791 13H100.61L99.9199 10.9492ZM96.8779 9.28809H99.3662L98.1152 5.5625L96.8779 9.28809ZM107.433 9.53418H103.584V7.94141H107.433V9.53418ZM113.161 3.04688H115.212V9.9375C115.212 10.571 115.071 11.1315 114.788 11.6191C114.51 12.1022 114.116 12.4759 113.605 12.7402C113.095 13.0046 112.519 13.1367 111.876 13.1367C110.823 13.1367 110.003 12.8701 109.415 12.3369C108.827 11.7992 108.533 11.0404 108.533 10.0605H110.598C110.598 10.5482 110.7 10.9082 110.905 11.1406C111.11 11.373 111.434 11.4893 111.876 11.4893C112.268 11.4893 112.58 11.3548 112.812 11.0859C113.045 10.8171 113.161 10.4342 113.161 9.9375V3.04688ZM125.145 8.24902C125.145 9.22884 124.971 10.0879 124.625 10.8262C124.279 11.5645 123.782 12.1341 123.135 12.5352C122.492 12.9362 121.754 13.1367 120.92 13.1367C120.095 13.1367 119.359 12.9385 118.712 12.542C118.065 12.1455 117.563 11.5804 117.208 10.8467C116.853 10.1084 116.673 9.26074 116.668 8.30371V7.81152C116.668 6.83171 116.843 5.97038 117.194 5.22754C117.55 4.48014 118.049 3.9082 118.691 3.51172C119.339 3.11068 120.077 2.91016 120.906 2.91016C121.736 2.91016 122.472 3.11068 123.114 3.51172C123.761 3.9082 124.26 4.48014 124.611 5.22754C124.967 5.97038 125.145 6.82943 125.145 7.80469V8.24902ZM123.066 7.79785C123.066 6.75423 122.88 5.96126 122.506 5.41895C122.132 4.87663 121.599 4.60547 120.906 4.60547C120.218 4.60547 119.687 4.87435 119.313 5.41211C118.94 5.94531 118.751 6.72917 118.746 7.76367V8.24902C118.746 9.2653 118.933 10.0537 119.307 10.6143C119.68 11.1748 120.218 11.4551 120.92 11.4551C121.608 11.4551 122.137 11.1862 122.506 10.6484C122.875 10.1061 123.062 9.31771 123.066 8.2832V7.79785ZM134.729 13H132.678L128.686 6.45117V13H126.635V3.04688H128.686L132.685 9.60938V3.04688H134.729V13ZM141.681 10.3887C141.681 10.0013 141.544 9.70508 141.271 9.5C140.997 9.29036 140.505 9.07161 139.794 8.84375C139.083 8.61133 138.52 8.38346 138.105 8.16016C136.975 7.54948 136.41 6.72689 136.41 5.69238C136.41 5.15462 136.561 4.67611 136.861 4.25684C137.167 3.83301 137.602 3.5026 138.167 3.26562C138.737 3.02865 139.375 2.91016 140.081 2.91016C140.792 2.91016 141.425 3.04004 141.981 3.2998C142.537 3.55501 142.968 3.91732 143.273 4.38672C143.583 4.85612 143.738 5.38932 143.738 5.98633H141.688C141.688 5.5306 141.544 5.17741 141.257 4.92676C140.97 4.67155 140.566 4.54395 140.047 4.54395C139.546 4.54395 139.156 4.65104 138.878 4.86523C138.6 5.07487 138.461 5.35286 138.461 5.69922C138.461 6.02279 138.623 6.29395 138.946 6.5127C139.274 6.73145 139.755 6.93652 140.389 7.12793C141.555 7.47884 142.405 7.91406 142.938 8.43359C143.472 8.95312 143.738 9.60026 143.738 10.375C143.738 11.2363 143.412 11.9131 142.761 12.4053C142.109 12.8929 141.232 13.1367 140.129 13.1367C139.363 13.1367 138.666 12.9977 138.037 12.7197C137.408 12.4372 136.927 12.0521 136.595 11.5645C136.267 11.0768 136.103 10.5117 136.103 9.86914H138.16C138.16 10.9674 138.816 11.5166 140.129 11.5166C140.617 11.5166 140.997 11.4186 141.271 11.2227C141.544 11.0221 141.681 10.7441 141.681 10.3887ZM150.294 10.3887C150.294 10.0013 150.157 9.70508 149.884 9.5C149.61 9.29036 149.118 9.07161 148.407 8.84375C147.696 8.61133 147.133 8.38346 146.719 8.16016C145.589 7.54948 145.023 6.72689 145.023 5.69238C145.023 5.15462 145.174 4.67611 145.475 4.25684C145.78 3.83301 146.215 3.5026 146.78 3.26562C147.35 3.02865 147.988 2.91016 148.694 2.91016C149.405 2.91016 150.039 3.04004 150.595 3.2998C151.151 3.55501 151.581 3.91732 151.887 4.38672C152.197 4.85612 152.352 5.38932 152.352 5.98633H150.301C150.301 5.5306 150.157 5.17741 149.87 4.92676C149.583 4.67155 149.18 4.54395 148.66 4.54395C148.159 4.54395 147.769 4.65104 147.491 4.86523C147.213 5.07487 147.074 5.35286 147.074 5.69922C147.074 6.02279 147.236 6.29395 147.56 6.5127C147.888 6.73145 148.368 6.93652 149.002 7.12793C150.169 7.47884 151.019 7.91406 151.552 8.43359C152.085 8.95312 152.352 9.60026 152.352 10.375C152.352 11.2363 152.026 11.9131 151.374 12.4053C150.722 12.8929 149.845 13.1367 148.742 13.1367C147.977 13.1367 147.279 12.9977 146.65 12.7197C146.021 12.4372 145.541 12.0521 145.208 11.5645C144.88 11.0768 144.716 10.5117 144.716 9.86914H146.773C146.773 10.9674 147.43 11.5166 148.742 11.5166C149.23 11.5166 149.61 11.4186 149.884 11.2227C150.157 11.0221 150.294 10.7441 150.294 10.3887ZM161.922 8.24902C161.922 9.22884 161.749 10.0879 161.402 10.8262C161.056 11.5645 160.559 12.1341 159.912 12.5352C159.27 12.9362 158.531 13.1367 157.697 13.1367C156.872 13.1367 156.136 12.9385 155.489 12.542C154.842 12.1455 154.341 11.5804 153.985 10.8467C153.63 10.1084 153.45 9.26074 153.445 8.30371V7.81152C153.445 6.83171 153.621 5.97038 153.972 5.22754C154.327 4.48014 154.826 3.9082 155.469 3.51172C156.116 3.11068 156.854 2.91016 157.684 2.91016C158.513 2.91016 159.249 3.11068 159.892 3.51172C160.539 3.9082 161.038 4.48014 161.389 5.22754C161.744 5.97038 161.922 6.82943 161.922 7.80469V8.24902ZM159.844 7.79785C159.844 6.75423 159.657 5.96126 159.283 5.41895C158.91 4.87663 158.376 4.60547 157.684 4.60547C156.995 4.60547 156.465 4.87435 156.091 5.41211C155.717 5.94531 155.528 6.72917 155.523 7.76367V8.24902C155.523 9.2653 155.71 10.0537 156.084 10.6143C156.458 11.1748 156.995 11.4551 157.697 11.4551C158.385 11.4551 158.914 11.1862 159.283 10.6484C159.652 10.1061 159.839 9.31771 159.844 8.2832V7.79785ZM171.506 13H169.455L165.463 6.45117V13H163.412V3.04688H165.463L169.462 9.60938V3.04688H171.506V13ZM173.68 15.4951L172.647 14.9551L172.894 14.5107C173.199 13.9548 173.356 13.401 173.365 12.8496V11.3184H175.033L175.026 12.6855C175.022 13.1914 174.894 13.7018 174.644 14.2168C174.393 14.7318 174.072 15.1579 173.68 15.4951ZM186.189 8.68652H182.252V11.3525H186.873V13H180.201V3.04688H186.859V4.70801H182.252V7.08008H186.189V8.68652ZM190.127 11.3525H194.481V13H188.076V3.04688H190.127V11.3525ZM201.201 9.49316V13H199.15V3.04688H203.033C203.781 3.04688 204.437 3.18359 205.002 3.45703C205.572 3.73047 206.009 4.12012 206.314 4.62598C206.62 5.12728 206.772 5.69922 206.772 6.3418C206.772 7.31706 206.438 8.08724 205.768 8.65234C205.102 9.21289 204.179 9.49316 202.999 9.49316H201.201ZM201.201 7.83203H203.033C203.576 7.83203 203.988 7.70443 204.271 7.44922C204.558 7.19401 204.701 6.82943 204.701 6.35547C204.701 5.86784 204.558 5.47363 204.271 5.17285C203.983 4.87207 203.587 4.71712 203.081 4.70801H201.201V7.83203ZM212.59 10.9492H208.994L208.311 13H206.13L209.835 3.04688H211.735L215.461 13H213.28L212.59 10.9492ZM209.548 9.28809H212.036L210.785 5.5625L209.548 9.28809ZM218.571 13H216.521V3.04688H218.571V13ZM217.936 0.360352H220.089L218.195 2.47949H216.589L217.936 0.360352ZM225.64 10.3887C225.64 10.0013 225.503 9.70508 225.229 9.5C224.956 9.29036 224.464 9.07161 223.753 8.84375C223.042 8.61133 222.479 8.38346 222.064 8.16016C220.934 7.54948 220.369 6.72689 220.369 5.69238C220.369 5.15462 220.52 4.67611 220.82 4.25684C221.126 3.83301 221.561 3.5026 222.126 3.26562C222.696 3.02865 223.334 2.91016 224.04 2.91016C224.751 2.91016 225.384 3.04004 225.94 3.2998C226.496 3.55501 226.927 3.91732 227.232 4.38672C227.542 4.85612 227.697 5.38932 227.697 5.98633H225.646C225.646 5.5306 225.503 5.17741 225.216 4.92676C224.929 4.67155 224.525 4.54395 224.006 4.54395C223.505 4.54395 223.115 4.65104 222.837 4.86523C222.559 5.07487 222.42 5.35286 222.42 5.69922C222.42 6.02279 222.582 6.29395 222.905 6.5127C223.233 6.73145 223.714 6.93652 224.348 7.12793C225.514 7.47884 226.364 7.91406 226.897 8.43359C227.431 8.95312 227.697 9.60026 227.697 10.375C227.697 11.2363 227.371 11.9131 226.72 12.4053C226.068 12.8929 225.191 13.1367 224.088 13.1367C223.322 13.1367 222.625 12.9977 221.996 12.7197C221.367 12.4372 220.886 12.0521 220.554 11.5645C220.226 11.0768 220.062 10.5117 220.062 9.86914H222.119C222.119 10.9674 222.775 11.5166 224.088 11.5166C224.576 11.5166 224.956 11.4186 225.229 11.2227C225.503 11.0221 225.64 10.7441 225.64 10.3887ZM236.263 9.35645H234.629V13H232.578V3.04688H236.276C237.452 3.04688 238.359 3.30892 238.997 3.83301C239.635 4.3571 239.954 5.09766 239.954 6.05469C239.954 6.73372 239.806 7.30111 239.51 7.75684C239.218 8.20801 238.774 8.56803 238.177 8.83691L240.33 12.9043V13H238.129L236.263 9.35645ZM234.629 7.69531H236.283C236.798 7.69531 237.197 7.56543 237.479 7.30566C237.762 7.04134 237.903 6.67904 237.903 6.21875C237.903 5.74935 237.769 5.38021 237.5 5.11133C237.236 4.84245 236.828 4.70801 236.276 4.70801H234.629V7.69531ZM247.508 8.68652H243.57V11.3525H248.191V13H241.52V3.04688H248.178V4.70801H243.57V7.08008H247.508V8.68652ZM257.023 4.70801H253.975V13H251.924V4.70801H248.916V3.04688H257.023V4.70801ZM260.38 13H258.329V3.04688H260.38V13ZM270.381 13H268.33L264.338 6.45117V13H262.287V3.04688H264.338L268.337 9.60938V3.04688H270.381V13ZM277.914 10.9492H274.318L273.635 13H271.454L275.159 3.04688H277.06L280.785 13H278.604L277.914 10.9492ZM274.872 9.28809H277.36L276.109 5.5625L274.872 9.28809Z" fill="black"/>
</g>
<defs>
<filter id="filter0_d" x="0.0185547" y="0.360352" width="284.767" height="23.1348" filterUnits="userSpaceOnUse" color-interpolation-filters="sRGB">
<feFlood flood-opacity="0" result="BackgroundImageFix"/>
<feColorMatrix in="SourceAlpha" type="matrix" values="0 0 0 0 0 0 0 0 0 0 0 0 0 0 0 0 0 0 127 0"/>
<feOffset dy="4"/>
<feGaussianBlur stdDeviation="2"/>
<feColorMatrix type="matrix" values="0 0 0 0 0.984314 0 0 0 0 0.992157 0 0 0 0 0.419608 0 0 0 1 0"/>
<feBlend mode="normal" in2="BackgroundImageFix" result="effect1_dropShadow"/>
<feBlend mode="normal" in="SourceGraphic" in2="effect1_dropShadow" result="shape"/>
</filter>
</defs>
</svg>
