<svg width="306" height="24" viewBox="0 0 306 24" fill="none" xmlns="http://www.w3.org/2000/svg">
<g filter="url(#filter0_d)">
<path d="M7.56836 3.04688L10.125 10.2656L12.668 3.04688H15.3613V13H13.3037V10.2793L13.5088 5.58301L10.8223 13H9.41406L6.73438 5.58984L6.93945 10.2793V13H4.88867V3.04688H7.56836ZM22.8945 10.9492H19.2988L18.6152 13H16.4346L20.1396 3.04688H22.04L25.7656 13H23.585L22.8945 10.9492ZM19.8525 9.28809H22.3408L21.0898 5.5625L19.8525 9.28809ZM30.3799 9.35645H28.7461V13H26.6953V3.04688H30.3936C31.5693 3.04688 32.4762 3.30892 33.1143 3.83301C33.7523 4.3571 34.0713 5.09766 34.0713 6.05469C34.0713 6.73372 33.9232 7.30111 33.627 7.75684C33.3353 8.20801 32.891 8.56803 32.2939 8.83691L34.4473 12.9043V13H32.2461L30.3799 9.35645ZM28.7461 7.69531H30.4004C30.9154 7.69531 31.3141 7.56543 31.5967 7.30566C31.8792 7.04134 32.0205 6.67904 32.0205 6.21875C32.0205 5.74935 31.8861 5.38021 31.6172 5.11133C31.3529 4.84245 30.945 4.70801 30.3936 4.70801H28.7461V7.69531ZM37.8174 13H35.7666V3.04688H37.8174V13ZM45.4668 10.9492H41.8711L41.1875 13H39.0068L42.7119 3.04688H44.6123L48.3379 13H46.1572L45.4668 10.9492ZM42.4248 9.28809H44.9131L43.6621 5.5625L42.4248 9.28809ZM55.8711 9.00781L54.8047 10.1562V13H52.7539V3.04688H54.8047V7.55859L55.707 6.32129L58.2432 3.04688H60.7656L57.2314 7.46973L60.8682 13H58.4277L55.8711 9.00781ZM67.6289 8.68652H63.6914V11.3525H68.3125V13H61.6406V3.04688H68.2988V4.70801H63.6914V7.08008H67.6289V8.68652ZM78.9902 8.93262H75.0527V13H73.002V3.04688H79.4824V4.70801H75.0527V7.27832H78.9902V8.93262ZM82.8525 13H80.8018V3.04688H82.8525V13ZM89.9209 10.3887C89.9209 10.0013 89.7842 9.70508 89.5107 9.5C89.2373 9.29036 88.7451 9.07161 88.0342 8.84375C87.3232 8.61133 86.7604 8.38346 86.3457 8.16016C85.2155 7.54948 84.6504 6.72689 84.6504 5.69238C84.6504 5.15462 84.8008 4.67611 85.1016 4.25684C85.4069 3.83301 85.8421 3.5026 86.4072 3.26562C86.9769 3.02865 87.6149 2.91016 88.3213 2.91016C89.0322 2.91016 89.6657 3.04004 90.2217 3.2998C90.7777 3.55501 91.2083 3.91732 91.5137 4.38672C91.8236 4.85612 91.9785 5.38932 91.9785 5.98633H89.9277C89.9277 5.5306 89.7842 5.17741 89.4971 4.92676C89.21 4.67155 88.8066 4.54395 88.2871 4.54395C87.7858 4.54395 87.3962 4.65104 87.1182 4.86523C86.8402 5.07487 86.7012 5.35286 86.7012 5.69922C86.7012 6.02279 86.863 6.29395 87.1865 6.5127C87.5146 6.73145 87.9954 6.93652 88.6289 7.12793C89.7956 7.47884 90.6455 7.91406 91.1787 8.43359C91.7119 8.95312 91.9785 9.60026 91.9785 10.375C91.9785 11.2363 91.6527 11.9131 91.001 12.4053C90.3493 12.8929 89.472 13.1367 88.3691 13.1367C87.6035 13.1367 86.9062 12.9977 86.2773 12.7197C85.6484 12.4372 85.1676 12.0521 84.835 11.5645C84.5068 11.0768 84.3428 10.5117 84.3428 9.86914H86.4004C86.4004 10.9674 87.0566 11.5166 88.3691 11.5166C88.8568 11.5166 89.2373 11.4186 89.5107 11.2227C89.7842 11.0221 89.9209 10.7441 89.9209 10.3887ZM101.474 13H99.4229V8.73438H95.4238V13H93.373V3.04688H95.4238V7.08008H99.4229V3.04688H101.474V13ZM109.26 8.68652H105.322V11.3525H109.943V13H103.271V3.04688H109.93V4.70801H105.322V7.08008H109.26V8.68652ZM114.831 9.35645H113.197V13H111.146V3.04688H114.845C116.021 3.04688 116.927 3.30892 117.565 3.83301C118.203 4.3571 118.522 5.09766 118.522 6.05469C118.522 6.73372 118.374 7.30111 118.078 7.75684C117.786 8.20801 117.342 8.56803 116.745 8.83691L118.898 12.9043V13H116.697L114.831 9.35645ZM113.197 7.69531H114.852C115.367 7.69531 115.765 7.56543 116.048 7.30566C116.33 7.04134 116.472 6.67904 116.472 6.21875C116.472 5.74935 116.337 5.38021 116.068 5.11133C115.804 4.84245 115.396 4.70801 114.845 4.70801H113.197V7.69531ZM122.768 3.04688L125.324 10.2656L127.867 3.04688H130.561V13H128.503V10.2793L128.708 5.58301L126.021 13H124.613L121.934 5.58984L122.139 10.2793V13H120.088V3.04688H122.768ZM138.094 10.9492H134.498L133.814 13H131.634L135.339 3.04688H137.239L140.965 13H138.784L138.094 10.9492ZM135.052 9.28809H137.54L136.289 5.5625L135.052 9.28809ZM149.988 13H147.938L143.945 6.45117V13H141.895V3.04688H143.945L147.944 9.60938V3.04688H149.988V13ZM152.162 15.4951L151.13 14.9551L151.376 14.5107C151.681 13.9548 151.839 13.401 151.848 12.8496V11.3184H153.516L153.509 12.6855C153.504 13.1914 153.377 13.7018 153.126 14.2168C152.875 14.7318 152.554 15.1579 152.162 15.4951ZM165.766 4.70801H162.717V13H160.666V4.70801H157.658V3.04688H165.766V4.70801ZM172.93 8.68652H168.992V11.3525H173.613V13H166.941V3.04688H173.6V4.70801H168.992V7.08008H172.93V8.68652ZM182.91 13H180.859L176.867 6.45117V13H174.816V3.04688H176.867L180.866 9.60938V3.04688H182.91V13ZM191.988 4.70801H188.939V13H186.889V4.70801H183.881V3.04688H191.988V4.70801ZM197.963 10.9492H194.367L193.684 13H191.503L195.208 3.04688H197.108L200.834 13H198.653L197.963 10.9492ZM194.921 9.28809H197.409L196.158 5.5625L194.921 9.28809ZM209.427 9.68457C209.349 10.7555 208.953 11.5986 208.237 12.2139C207.526 12.8291 206.588 13.1367 205.421 13.1367C204.145 13.1367 203.14 12.7083 202.406 11.8516C201.677 10.9902 201.312 9.8099 201.312 8.31055V7.70215C201.312 6.74512 201.481 5.90202 201.818 5.17285C202.156 4.44368 202.636 3.88542 203.261 3.49805C203.89 3.10612 204.619 2.91016 205.448 2.91016C206.597 2.91016 207.522 3.21777 208.224 3.83301C208.925 4.44824 209.331 5.31185 209.44 6.42383H207.39C207.34 5.78125 207.16 5.31641 206.85 5.0293C206.544 4.73763 206.077 4.5918 205.448 4.5918C204.765 4.5918 204.252 4.83789 203.91 5.33008C203.573 5.81771 203.4 6.5765 203.391 7.60645V8.3584C203.391 9.43392 203.552 10.2201 203.876 10.7168C204.204 11.2135 204.719 11.4619 205.421 11.4619C206.054 11.4619 206.526 11.3184 206.836 11.0312C207.15 10.7396 207.33 10.2907 207.376 9.68457H209.427ZM212.954 13H210.903V3.04688H212.954V13ZM223.037 8.24902C223.037 9.22884 222.864 10.0879 222.518 10.8262C222.171 11.5645 221.674 12.1341 221.027 12.5352C220.385 12.9362 219.646 13.1367 218.812 13.1367C217.988 13.1367 217.252 12.9385 216.604 12.542C215.957 12.1455 215.456 11.5804 215.101 10.8467C214.745 10.1084 214.565 9.26074 214.561 8.30371V7.81152C214.561 6.83171 214.736 5.97038 215.087 5.22754C215.442 4.48014 215.941 3.9082 216.584 3.51172C217.231 3.11068 217.969 2.91016 218.799 2.91016C219.628 2.91016 220.364 3.11068 221.007 3.51172C221.654 3.9082 222.153 4.48014 222.504 5.22754C222.859 5.97038 223.037 6.82943 223.037 7.80469V8.24902ZM220.959 7.79785C220.959 6.75423 220.772 5.96126 220.398 5.41895C220.025 4.87663 219.492 4.60547 218.799 4.60547C218.111 4.60547 217.58 4.87435 217.206 5.41211C216.832 5.94531 216.643 6.72917 216.639 7.76367V8.24902C216.639 9.2653 216.826 10.0537 217.199 10.6143C217.573 11.1748 218.111 11.4551 218.812 11.4551C219.501 11.4551 220.029 11.1862 220.398 10.6484C220.768 10.1061 220.954 9.31771 220.959 8.2832V7.79785ZM232.621 13H230.57L226.578 6.45117V13H224.527V3.04688H226.578L230.577 9.60938V3.04688H232.621V13ZM240.4 8.68652H236.463V11.3525H241.084V13H234.412V3.04688H241.07V4.70801H236.463V7.08008H240.4V8.68652ZM247.448 10.3887C247.448 10.0013 247.312 9.70508 247.038 9.5C246.765 9.29036 246.272 9.07161 245.562 8.84375C244.851 8.61133 244.288 8.38346 243.873 8.16016C242.743 7.54948 242.178 6.72689 242.178 5.69238C242.178 5.15462 242.328 4.67611 242.629 4.25684C242.934 3.83301 243.369 3.5026 243.935 3.26562C244.504 3.02865 245.142 2.91016 245.849 2.91016C246.56 2.91016 247.193 3.04004 247.749 3.2998C248.305 3.55501 248.736 3.91732 249.041 4.38672C249.351 4.85612 249.506 5.38932 249.506 5.98633H247.455C247.455 5.5306 247.312 5.17741 247.024 4.92676C246.737 4.67155 246.334 4.54395 245.814 4.54395C245.313 4.54395 244.924 4.65104 244.646 4.86523C244.368 5.07487 244.229 5.35286 244.229 5.69922C244.229 6.02279 244.39 6.29395 244.714 6.5127C245.042 6.73145 245.523 6.93652 246.156 7.12793C247.323 7.47884 248.173 7.91406 248.706 8.43359C249.239 8.95312 249.506 9.60026 249.506 10.375C249.506 11.2363 249.18 11.9131 248.528 12.4053C247.877 12.8929 246.999 13.1367 245.896 13.1367C245.131 13.1367 244.434 12.9977 243.805 12.7197C243.176 12.4372 242.695 12.0521 242.362 11.5645C242.034 11.0768 241.87 10.5117 241.87 9.86914H243.928C243.928 10.9674 244.584 11.5166 245.896 11.5166C246.384 11.5166 246.765 11.4186 247.038 11.2227C247.312 11.0221 247.448 10.7441 247.448 10.3887ZM260.375 8.68652H256.438V11.3525H261.059V13H254.387V3.04688H261.045V4.70801H256.438V7.08008H260.375V8.68652ZM264.312 11.3525H268.667V13H262.262V3.04688H264.312V11.3525ZM275.387 9.49316V13H273.336V3.04688H277.219C277.966 3.04688 278.622 3.18359 279.188 3.45703C279.757 3.73047 280.195 4.12012 280.5 4.62598C280.805 5.12728 280.958 5.69922 280.958 6.3418C280.958 7.31706 280.623 8.08724 279.953 8.65234C279.288 9.21289 278.365 9.49316 277.185 9.49316H275.387ZM275.387 7.83203H277.219C277.761 7.83203 278.174 7.70443 278.456 7.44922C278.743 7.19401 278.887 6.82943 278.887 6.35547C278.887 5.86784 278.743 5.47363 278.456 5.17285C278.169 4.87207 277.772 4.71712 277.267 4.70801H275.387V7.83203ZM286.775 10.9492H283.18L282.496 13H280.315L284.021 3.04688H285.921L289.646 13H287.466L286.775 10.9492ZM283.733 9.28809H286.222L284.971 5.5625L283.733 9.28809ZM292.757 13H290.706V3.04688H292.757V13ZM292.121 0.360352H294.274L292.381 2.47949H290.774L292.121 0.360352ZM299.825 10.3887C299.825 10.0013 299.688 9.70508 299.415 9.5C299.142 9.29036 298.649 9.07161 297.938 8.84375C297.228 8.61133 296.665 8.38346 296.25 8.16016C295.12 7.54948 294.555 6.72689 294.555 5.69238C294.555 5.15462 294.705 4.67611 295.006 4.25684C295.311 3.83301 295.746 3.5026 296.312 3.26562C296.881 3.02865 297.519 2.91016 298.226 2.91016C298.937 2.91016 299.57 3.04004 300.126 3.2998C300.682 3.55501 301.113 3.91732 301.418 4.38672C301.728 4.85612 301.883 5.38932 301.883 5.98633H299.832C299.832 5.5306 299.688 5.17741 299.401 4.92676C299.114 4.67155 298.711 4.54395 298.191 4.54395C297.69 4.54395 297.3 4.65104 297.022 4.86523C296.744 5.07487 296.605 5.35286 296.605 5.69922C296.605 6.02279 296.767 6.29395 297.091 6.5127C297.419 6.73145 297.9 6.93652 298.533 7.12793C299.7 7.47884 300.55 7.91406 301.083 8.43359C301.616 8.95312 301.883 9.60026 301.883 10.375C301.883 11.2363 301.557 11.9131 300.905 12.4053C300.254 12.8929 299.376 13.1367 298.273 13.1367C297.508 13.1367 296.811 12.9977 296.182 12.7197C295.553 12.4372 295.072 12.0521 294.739 11.5645C294.411 11.0768 294.247 10.5117 294.247 9.86914H296.305C296.305 10.9674 296.961 11.5166 298.273 11.5166C298.761 11.5166 299.142 11.4186 299.415 11.2227C299.688 11.0221 299.825 10.7441 299.825 10.3887Z" fill="black"/>
</g>
<defs>
<filter id="filter0_d" x="0.888672" y="0.360352" width="304.994" height="23.1348" filterUnits="userSpaceOnUse" color-interpolation-filters="sRGB">
<feFlood flood-opacity="0" result="BackgroundImageFix"/>
<feColorMatrix in="SourceAlpha" type="matrix" values="0 0 0 0 0 0 0 0 0 0 0 0 0 0 0 0 0 0 127 0"/>
<feOffset dy="4"/>
<feGaussianBlur stdDeviation="2"/>
<feColorMatrix type="matrix" values="0 0 0 0 0.984314 0 0 0 0 0.992157 0 0 0 0 0.419608 0 0 0 1 0"/>
<feBlend mode="normal" in2="BackgroundImageFix" result="effect1_dropShadow"/>
<feBlend mode="normal" in="SourceGraphic" in2="effect1_dropShadow" result="shape"/>
</filter>
</defs>
</svg>
