<svg width="199" height="24" viewBox="0 0 199 24" fill="none" xmlns="http://www.w3.org/2000/svg">
<g filter="url(#filter0_d)">
<path d="M6.93945 9.49316V13H4.88867V3.04688H8.77148C9.51888 3.04688 10.1751 3.18359 10.7402 3.45703C11.3099 3.73047 11.7474 4.12012 12.0527 4.62598C12.3581 5.12728 12.5107 5.69922 12.5107 6.3418C12.5107 7.31706 12.1758 8.08724 11.5059 8.65234C10.8405 9.21289 9.91764 9.49316 8.7373 9.49316H6.93945ZM6.93945 7.83203H8.77148C9.3138 7.83203 9.72624 7.70443 10.0088 7.44922C10.2959 7.19401 10.4395 6.82943 10.4395 6.35547C10.4395 5.86784 10.2959 5.47363 10.0088 5.17285C9.72168 4.87207 9.3252 4.71712 8.81934 4.70801H6.93945V7.83203ZM18.3281 10.9492H14.7324L14.0488 13H11.8682L15.5732 3.04688H17.4736L21.1992 13H19.0186L18.3281 10.9492ZM15.2861 9.28809H17.7744L16.5234 5.5625L15.2861 9.28809ZM24.1797 11.3525H28.5342V13H22.1289V3.04688H24.1797V11.3525ZM37.4551 8.24902C37.4551 9.22884 37.2819 10.0879 36.9355 10.8262C36.5892 11.5645 36.0924 12.1341 35.4453 12.5352C34.8027 12.9362 34.0645 13.1367 33.2305 13.1367C32.4056 13.1367 31.6696 12.9385 31.0225 12.542C30.3753 12.1455 29.874 11.5804 29.5186 10.8467C29.1631 10.1084 28.9831 9.26074 28.9785 8.30371V7.81152C28.9785 6.83171 29.154 5.97038 29.5049 5.22754C29.8604 4.48014 30.3594 3.9082 31.002 3.51172C31.6491 3.11068 32.3874 2.91016 33.2168 2.91016C34.0462 2.91016 34.7822 3.11068 35.4248 3.51172C36.0719 3.9082 36.571 4.48014 36.9219 5.22754C37.2773 5.97038 37.4551 6.82943 37.4551 7.80469V8.24902ZM35.377 7.79785C35.377 6.75423 35.1901 5.96126 34.8164 5.41895C34.4427 4.87663 33.9095 4.60547 33.2168 4.60547C32.5286 4.60547 31.9977 4.87435 31.624 5.41211C31.2503 5.94531 31.0612 6.72917 31.0566 7.76367V8.24902C31.0566 9.2653 31.2435 10.0537 31.6172 10.6143C31.9909 11.1748 32.5286 11.4551 33.2305 11.4551C33.9186 11.4551 34.4473 11.1862 34.8164 10.6484C35.1855 10.1061 35.3724 9.31771 35.377 8.2832V7.79785ZM41.625 3.04688L44.1816 10.2656L46.7246 3.04688H49.418V13H47.3604V10.2793L47.5654 5.58301L44.8789 13H43.4707L40.791 5.58984L40.9961 10.2793V13H38.9453V3.04688H41.625ZM59.3848 8.24902C59.3848 9.22884 59.2116 10.0879 58.8652 10.8262C58.5189 11.5645 58.0221 12.1341 57.375 12.5352C56.7324 12.9362 55.9941 13.1367 55.1602 13.1367C54.3353 13.1367 53.5993 12.9385 52.9521 12.542C52.305 12.1455 51.8037 11.5804 51.4482 10.8467C51.0928 10.1084 50.9128 9.26074 50.9082 8.30371V7.81152C50.9082 6.83171 51.0837 5.97038 51.4346 5.22754C51.79 4.48014 52.2891 3.9082 52.9316 3.51172C53.5788 3.11068 54.3171 2.91016 55.1465 2.91016C55.9759 2.91016 56.7119 3.11068 57.3545 3.51172C58.0016 3.9082 58.5007 4.48014 58.8516 5.22754C59.207 5.97038 59.3848 6.82943 59.3848 7.80469V8.24902ZM57.3066 7.79785C57.3066 6.75423 57.1198 5.96126 56.7461 5.41895C56.3724 4.87663 55.8392 4.60547 55.1465 4.60547C54.4583 4.60547 53.9274 4.87435 53.5537 5.41211C53.18 5.94531 52.9909 6.72917 52.9863 7.76367V8.24902C52.9863 9.2653 53.1732 10.0537 53.5469 10.6143C53.9206 11.1748 54.4583 11.4551 55.1602 11.4551C55.8483 11.4551 56.377 11.1862 56.7461 10.6484C57.1152 10.1061 57.3021 9.31771 57.3066 8.2832V7.79785ZM69.5225 10.3887C69.5225 10.0013 69.3857 9.70508 69.1123 9.5C68.8389 9.29036 68.3467 9.07161 67.6357 8.84375C66.9248 8.61133 66.362 8.38346 65.9473 8.16016C64.8171 7.54948 64.252 6.72689 64.252 5.69238C64.252 5.15462 64.4023 4.67611 64.7031 4.25684C65.0085 3.83301 65.4437 3.5026 66.0088 3.26562C66.5785 3.02865 67.2165 2.91016 67.9229 2.91016C68.6338 2.91016 69.2673 3.04004 69.8232 3.2998C70.3792 3.55501 70.8099 3.91732 71.1152 4.38672C71.4251 4.85612 71.5801 5.38932 71.5801 5.98633H69.5293C69.5293 5.5306 69.3857 5.17741 69.0986 4.92676C68.8115 4.67155 68.4082 4.54395 67.8887 4.54395C67.3874 4.54395 66.9977 4.65104 66.7197 4.86523C66.4417 5.07487 66.3027 5.35286 66.3027 5.69922C66.3027 6.02279 66.4645 6.29395 66.7881 6.5127C67.1162 6.73145 67.597 6.93652 68.2305 7.12793C69.3971 7.47884 70.2471 7.91406 70.7803 8.43359C71.3135 8.95312 71.5801 9.60026 71.5801 10.375C71.5801 11.2363 71.2542 11.9131 70.6025 12.4053C69.9508 12.8929 69.0736 13.1367 67.9707 13.1367C67.2051 13.1367 66.5078 12.9977 65.8789 12.7197C65.25 12.4372 64.7692 12.0521 64.4365 11.5645C64.1084 11.0768 63.9443 10.5117 63.9443 9.86914H66.002C66.002 10.9674 66.6582 11.5166 67.9707 11.5166C68.4583 11.5166 68.8389 11.4186 69.1123 11.2227C69.3857 11.0221 69.5225 10.7441 69.5225 10.3887ZM75.0254 9.49316V13H72.9746V3.04688H76.8574C77.6048 3.04688 78.2611 3.18359 78.8262 3.45703C79.3958 3.73047 79.8333 4.12012 80.1387 4.62598C80.444 5.12728 80.5967 5.69922 80.5967 6.3418C80.5967 7.31706 80.2617 8.08724 79.5918 8.65234C78.9264 9.21289 78.0036 9.49316 76.8232 9.49316H75.0254ZM75.0254 7.83203H76.8574C77.3997 7.83203 77.8122 7.70443 78.0947 7.44922C78.3818 7.19401 78.5254 6.82943 78.5254 6.35547C78.5254 5.86784 78.3818 5.47363 78.0947 5.17285C77.8076 4.87207 77.4111 4.71712 76.9053 4.70801H75.0254V7.83203ZM86.4141 10.9492H82.8184L82.1348 13H79.9541L83.6592 3.04688H85.5596L89.2852 13H87.1045L86.4141 10.9492ZM83.3721 9.28809H85.8604L84.6094 5.5625L83.3721 9.28809ZM92.3955 13H90.3447V3.04688H92.3955V13ZM102.396 13H100.346L96.3535 6.45117V13H94.3027V3.04688H96.3535L100.353 9.60938V3.04688H102.396V13ZM104.57 15.4951L103.538 14.9551L103.784 14.5107C104.09 13.9548 104.247 13.401 104.256 12.8496V11.3184H105.924L105.917 12.6855C105.912 13.1914 105.785 13.7018 105.534 14.2168C105.284 14.7318 104.962 15.1579 104.57 15.4951ZM113.272 13H111.222V3.04688H113.272V13ZM122.993 9.68457C122.916 10.7555 122.519 11.5986 121.804 12.2139C121.093 12.8291 120.154 13.1367 118.987 13.1367C117.711 13.1367 116.706 12.7083 115.973 11.8516C115.243 10.9902 114.879 9.8099 114.879 8.31055V7.70215C114.879 6.74512 115.048 5.90202 115.385 5.17285C115.722 4.44368 116.203 3.88542 116.827 3.49805C117.456 3.10612 118.185 2.91016 119.015 2.91016C120.163 2.91016 121.088 3.21777 121.79 3.83301C122.492 4.44824 122.897 5.31185 123.007 6.42383H120.956C120.906 5.78125 120.726 5.31641 120.416 5.0293C120.111 4.73763 119.644 4.5918 119.015 4.5918C118.331 4.5918 117.818 4.83789 117.477 5.33008C117.139 5.81771 116.966 6.5765 116.957 7.60645V8.3584C116.957 9.43392 117.119 10.2201 117.442 10.7168C117.771 11.2135 118.285 11.4619 118.987 11.4619C119.621 11.4619 120.092 11.3184 120.402 11.0312C120.717 10.7396 120.897 10.2907 120.942 9.68457H122.993ZM132.516 8.24902C132.516 9.22884 132.342 10.0879 131.996 10.8262C131.65 11.5645 131.153 12.1341 130.506 12.5352C129.863 12.9362 129.125 13.1367 128.291 13.1367C127.466 13.1367 126.73 12.9385 126.083 12.542C125.436 12.1455 124.935 11.5804 124.579 10.8467C124.224 10.1084 124.044 9.26074 124.039 8.30371V7.81152C124.039 6.83171 124.215 5.97038 124.565 5.22754C124.921 4.48014 125.42 3.9082 126.062 3.51172C126.71 3.11068 127.448 2.91016 128.277 2.91016C129.107 2.91016 129.843 3.11068 130.485 3.51172C131.132 3.9082 131.632 4.48014 131.982 5.22754C132.338 5.97038 132.516 6.82943 132.516 7.80469V8.24902ZM130.438 7.79785C130.438 6.75423 130.251 5.96126 129.877 5.41895C129.503 4.87663 128.97 4.60547 128.277 4.60547C127.589 4.60547 127.058 4.87435 126.685 5.41211C126.311 5.94531 126.122 6.72917 126.117 7.76367V8.24902C126.117 9.2653 126.304 10.0537 126.678 10.6143C127.051 11.1748 127.589 11.4551 128.291 11.4551C128.979 11.4551 129.508 11.1862 129.877 10.6484C130.246 10.1061 130.433 9.31771 130.438 8.2832V7.79785ZM142.1 13H140.049L136.057 6.45117V13H134.006V3.04688H136.057L140.056 9.60938V3.04688H142.1V13ZM153.365 8.68652H149.428V11.3525H154.049V13H147.377V3.04688H154.035V4.70801H149.428V7.08008H153.365V8.68652ZM157.303 11.3525H161.657V13H155.252V3.04688H157.303V11.3525ZM168.377 9.49316V13H166.326V3.04688H170.209C170.956 3.04688 171.613 3.18359 172.178 3.45703C172.747 3.73047 173.185 4.12012 173.49 4.62598C173.796 5.12728 173.948 5.69922 173.948 6.3418C173.948 7.31706 173.613 8.08724 172.943 8.65234C172.278 9.21289 171.355 9.49316 170.175 9.49316H168.377ZM168.377 7.83203H170.209C170.751 7.83203 171.164 7.70443 171.446 7.44922C171.733 7.19401 171.877 6.82943 171.877 6.35547C171.877 5.86784 171.733 5.47363 171.446 5.17285C171.159 4.87207 170.763 4.71712 170.257 4.70801H168.377V7.83203ZM179.766 10.9492H176.17L175.486 13H173.306L177.011 3.04688H178.911L182.637 13H180.456L179.766 10.9492ZM176.724 9.28809H179.212L177.961 5.5625L176.724 9.28809ZM185.747 13H183.696V3.04688H185.747V13ZM185.111 0.360352H187.265L185.371 2.47949H183.765L185.111 0.360352ZM192.815 10.3887C192.815 10.0013 192.679 9.70508 192.405 9.5C192.132 9.29036 191.64 9.07161 190.929 8.84375C190.218 8.61133 189.655 8.38346 189.24 8.16016C188.11 7.54948 187.545 6.72689 187.545 5.69238C187.545 5.15462 187.695 4.67611 187.996 4.25684C188.301 3.83301 188.737 3.5026 189.302 3.26562C189.871 3.02865 190.509 2.91016 191.216 2.91016C191.927 2.91016 192.56 3.04004 193.116 3.2998C193.672 3.55501 194.103 3.91732 194.408 4.38672C194.718 4.85612 194.873 5.38932 194.873 5.98633H192.822C192.822 5.5306 192.679 5.17741 192.392 4.92676C192.104 4.67155 191.701 4.54395 191.182 4.54395C190.68 4.54395 190.291 4.65104 190.013 4.86523C189.735 5.07487 189.596 5.35286 189.596 5.69922C189.596 6.02279 189.757 6.29395 190.081 6.5127C190.409 6.73145 190.89 6.93652 191.523 7.12793C192.69 7.47884 193.54 7.91406 194.073 8.43359C194.606 8.95312 194.873 9.60026 194.873 10.375C194.873 11.2363 194.547 11.9131 193.896 12.4053C193.244 12.8929 192.367 13.1367 191.264 13.1367C190.498 13.1367 189.801 12.9977 189.172 12.7197C188.543 12.4372 188.062 12.0521 187.729 11.5645C187.401 11.0768 187.237 10.5117 187.237 9.86914H189.295C189.295 10.9674 189.951 11.5166 191.264 11.5166C191.751 11.5166 192.132 11.4186 192.405 11.2227C192.679 11.0221 192.815 10.7441 192.815 10.3887Z" fill="black"/>
</g>
<defs>
<filter id="filter0_d" x="0.888672" y="0.360352" width="197.984" height="23.1348" filterUnits="userSpaceOnUse" color-interpolation-filters="sRGB">
<feFlood flood-opacity="0" result="BackgroundImageFix"/>
<feColorMatrix in="SourceAlpha" type="matrix" values="0 0 0 0 0 0 0 0 0 0 0 0 0 0 0 0 0 0 127 0"/>
<feOffset dy="4"/>
<feGaussianBlur stdDeviation="2"/>
<feColorMatrix type="matrix" values="0 0 0 0 0.984314 0 0 0 0 0.992157 0 0 0 0 0.419608 0 0 0 1 0"/>
<feBlend mode="normal" in2="BackgroundImageFix" result="effect1_dropShadow"/>
<feBlend mode="normal" in="SourceGraphic" in2="effect1_dropShadow" result="shape"/>
</filter>
</defs>
</svg>
