<svg width="254" height="24" viewBox="0 0 254 24" fill="none" xmlns="http://www.w3.org/2000/svg">
<g filter="url(#filter0_d)">
<path d="M10.0498 10.3887C10.0498 10.0013 9.91309 9.70508 9.63965 9.5C9.36621 9.29036 8.87402 9.07161 8.16309 8.84375C7.45215 8.61133 6.88932 8.38346 6.47461 8.16016C5.3444 7.54948 4.7793 6.72689 4.7793 5.69238C4.7793 5.15462 4.92969 4.67611 5.23047 4.25684C5.53581 3.83301 5.97103 3.5026 6.53613 3.26562C7.10579 3.02865 7.74382 2.91016 8.4502 2.91016C9.16113 2.91016 9.7946 3.04004 10.3506 3.2998C10.9066 3.55501 11.3372 3.91732 11.6426 4.38672C11.9525 4.85612 12.1074 5.38932 12.1074 5.98633H10.0566C10.0566 5.5306 9.91309 5.17741 9.62598 4.92676C9.33887 4.67155 8.93555 4.54395 8.41602 4.54395C7.91471 4.54395 7.52507 4.65104 7.24707 4.86523C6.96908 5.07487 6.83008 5.35286 6.83008 5.69922C6.83008 6.02279 6.99186 6.29395 7.31543 6.5127C7.64355 6.73145 8.12435 6.93652 8.75781 7.12793C9.92448 7.47884 10.7744 7.91406 11.3076 8.43359C11.8408 8.95312 12.1074 9.60026 12.1074 10.375C12.1074 11.2363 11.7816 11.9131 11.1299 12.4053C10.4782 12.8929 9.60091 13.1367 8.49805 13.1367C7.73242 13.1367 7.03516 12.9977 6.40625 12.7197C5.77734 12.4372 5.29655 12.0521 4.96387 11.5645C4.63574 11.0768 4.47168 10.5117 4.47168 9.86914H6.5293C6.5293 10.9674 7.18555 11.5166 8.49805 11.5166C8.98568 11.5166 9.36621 11.4186 9.63965 11.2227C9.91309 11.0221 10.0498 10.7441 10.0498 10.3887ZM15.6826 13H13.6318V3.04688H15.6826V13ZM24.877 4.70801H21.8281V13H19.7773V4.70801H16.7695V3.04688H24.877V4.70801ZM30.8516 10.9492H27.2559L26.5723 13H24.3916L28.0967 3.04688H29.9971L33.7227 13H31.542L30.8516 10.9492ZM27.8096 9.28809H30.2979L29.0469 5.5625L27.8096 9.28809ZM43.7578 10.9492H40.1621L39.4785 13H37.2979L41.0029 3.04688H42.9033L46.6289 13H44.4482L43.7578 10.9492ZM40.7158 9.28809H43.2041L41.9531 5.5625L40.7158 9.28809ZM47.5586 13V3.04688H51.0449C52.2526 3.04688 53.1686 3.2793 53.793 3.74414C54.4173 4.20443 54.7295 4.88118 54.7295 5.77441C54.7295 6.26204 54.6042 6.69271 54.3535 7.06641C54.1029 7.43555 53.7542 7.70671 53.3076 7.87988C53.818 8.00749 54.2191 8.26497 54.5107 8.65234C54.807 9.03971 54.9551 9.51367 54.9551 10.0742C54.9551 11.0312 54.6497 11.7559 54.0391 12.248C53.4284 12.7402 52.5579 12.9909 51.4277 13H47.5586ZM49.6094 8.66602V11.3525H51.3662C51.8493 11.3525 52.2253 11.2386 52.4941 11.0107C52.7676 10.7783 52.9043 10.4593 52.9043 10.0537C52.9043 9.14225 52.4326 8.67969 51.4893 8.66602H49.6094ZM49.6094 7.2168H51.127C52.1615 7.19857 52.6787 6.78613 52.6787 5.97949C52.6787 5.52832 52.5465 5.20475 52.2822 5.00879C52.0225 4.80827 51.61 4.70801 51.0449 4.70801H49.6094V7.2168ZM62.4883 8.68652H58.5508V11.3525H63.1719V13H56.5V3.04688H63.1582V4.70801H58.5508V7.08008H62.4883V8.68652ZM66.4258 11.3525H70.7803V13H64.375V3.04688H66.4258V11.3525ZM74.0137 11.3525H78.3682V13H71.9629V3.04688H74.0137V11.3525ZM85.3066 10.9492H81.7109L81.0273 13H78.8467L82.5518 3.04688H84.4521L88.1777 13H85.9971L85.3066 10.9492ZM82.2646 9.28809H84.7529L83.502 5.5625L82.2646 9.28809ZM97.2012 13H95.1504L91.1582 6.45117V13H89.1074V3.04688H91.1582L95.1572 9.60938V3.04688H97.2012V13ZM99.375 15.4951L98.3428 14.9551L98.5889 14.5107C98.8942 13.9548 99.0514 13.401 99.0605 12.8496V11.3184H100.729L100.722 12.6855C100.717 13.1914 100.59 13.7018 100.339 14.2168C100.088 14.7318 99.7669 15.1579 99.375 15.4951ZM112.979 4.70801H109.93V13H107.879V4.70801H104.871V3.04688H112.979V4.70801ZM120.143 8.68652H116.205V11.3525H120.826V13H114.154V3.04688H120.812V4.70801H116.205V7.08008H120.143V8.68652ZM130.123 13H128.072L124.08 6.45117V13H122.029V3.04688H124.08L128.079 9.60938V3.04688H130.123V13ZM139.201 4.70801H136.152V13H134.102V4.70801H131.094V3.04688H139.201V4.70801ZM145.176 10.9492H141.58L140.896 13H138.716L142.421 3.04688H144.321L148.047 13H145.866L145.176 10.9492ZM142.134 9.28809H144.622L143.371 5.5625L142.134 9.28809ZM156.64 9.68457C156.562 10.7555 156.166 11.5986 155.45 12.2139C154.739 12.8291 153.8 13.1367 152.634 13.1367C151.358 13.1367 150.353 12.7083 149.619 11.8516C148.89 10.9902 148.525 9.8099 148.525 8.31055V7.70215C148.525 6.74512 148.694 5.90202 149.031 5.17285C149.368 4.44368 149.849 3.88542 150.474 3.49805C151.103 3.10612 151.832 2.91016 152.661 2.91016C153.81 2.91016 154.735 3.21777 155.437 3.83301C156.138 4.44824 156.544 5.31185 156.653 6.42383H154.603C154.552 5.78125 154.372 5.31641 154.062 5.0293C153.757 4.73763 153.29 4.5918 152.661 4.5918C151.978 4.5918 151.465 4.83789 151.123 5.33008C150.786 5.81771 150.613 6.5765 150.604 7.60645V8.3584C150.604 9.43392 150.765 10.2201 151.089 10.7168C151.417 11.2135 151.932 11.4619 152.634 11.4619C153.267 11.4619 153.739 11.3184 154.049 11.0312C154.363 10.7396 154.543 10.2907 154.589 9.68457H156.64ZM160.167 13H158.116V3.04688H160.167V13ZM170.25 8.24902C170.25 9.22884 170.077 10.0879 169.73 10.8262C169.384 11.5645 168.887 12.1341 168.24 12.5352C167.598 12.9362 166.859 13.1367 166.025 13.1367C165.201 13.1367 164.465 12.9385 163.817 12.542C163.17 12.1455 162.669 11.5804 162.313 10.8467C161.958 10.1084 161.778 9.26074 161.773 8.30371V7.81152C161.773 6.83171 161.949 5.97038 162.3 5.22754C162.655 4.48014 163.154 3.9082 163.797 3.51172C164.444 3.11068 165.182 2.91016 166.012 2.91016C166.841 2.91016 167.577 3.11068 168.22 3.51172C168.867 3.9082 169.366 4.48014 169.717 5.22754C170.072 5.97038 170.25 6.82943 170.25 7.80469V8.24902ZM168.172 7.79785C168.172 6.75423 167.985 5.96126 167.611 5.41895C167.238 4.87663 166.704 4.60547 166.012 4.60547C165.324 4.60547 164.793 4.87435 164.419 5.41211C164.045 5.94531 163.856 6.72917 163.852 7.76367V8.24902C163.852 9.2653 164.038 10.0537 164.412 10.6143C164.786 11.1748 165.324 11.4551 166.025 11.4551C166.714 11.4551 167.242 11.1862 167.611 10.6484C167.98 10.1061 168.167 9.31771 168.172 8.2832V7.79785ZM179.834 13H177.783L173.791 6.45117V13H171.74V3.04688H173.791L177.79 9.60938V3.04688H179.834V13ZM187.613 8.68652H183.676V11.3525H188.297V13H181.625V3.04688H188.283V4.70801H183.676V7.08008H187.613V8.68652ZM194.661 10.3887C194.661 10.0013 194.524 9.70508 194.251 9.5C193.978 9.29036 193.485 9.07161 192.774 8.84375C192.063 8.61133 191.501 8.38346 191.086 8.16016C189.956 7.54948 189.391 6.72689 189.391 5.69238C189.391 5.15462 189.541 4.67611 189.842 4.25684C190.147 3.83301 190.582 3.5026 191.147 3.26562C191.717 3.02865 192.355 2.91016 193.062 2.91016C193.772 2.91016 194.406 3.04004 194.962 3.2998C195.518 3.55501 195.949 3.91732 196.254 4.38672C196.564 4.85612 196.719 5.38932 196.719 5.98633H194.668C194.668 5.5306 194.524 5.17741 194.237 4.92676C193.95 4.67155 193.547 4.54395 193.027 4.54395C192.526 4.54395 192.136 4.65104 191.858 4.86523C191.58 5.07487 191.441 5.35286 191.441 5.69922C191.441 6.02279 191.603 6.29395 191.927 6.5127C192.255 6.73145 192.736 6.93652 193.369 7.12793C194.536 7.47884 195.386 7.91406 195.919 8.43359C196.452 8.95312 196.719 9.60026 196.719 10.375C196.719 11.2363 196.393 11.9131 195.741 12.4053C195.09 12.8929 194.212 13.1367 193.109 13.1367C192.344 13.1367 191.646 12.9977 191.018 12.7197C190.389 12.4372 189.908 12.0521 189.575 11.5645C189.247 11.0768 189.083 10.5117 189.083 9.86914H191.141C191.141 10.9674 191.797 11.5166 193.109 11.5166C193.597 11.5166 193.978 11.4186 194.251 11.2227C194.524 11.0221 194.661 10.7441 194.661 10.3887ZM207.588 8.68652H203.65V11.3525H208.271V13H201.6V3.04688H208.258V4.70801H203.65V7.08008H207.588V8.68652ZM211.525 11.3525H215.88V13H209.475V3.04688H211.525V11.3525ZM222.6 9.49316V13H220.549V3.04688H224.432C225.179 3.04688 225.835 3.18359 226.4 3.45703C226.97 3.73047 227.408 4.12012 227.713 4.62598C228.018 5.12728 228.171 5.69922 228.171 6.3418C228.171 7.31706 227.836 8.08724 227.166 8.65234C226.501 9.21289 225.578 9.49316 224.397 9.49316H222.6ZM222.6 7.83203H224.432C224.974 7.83203 225.386 7.70443 225.669 7.44922C225.956 7.19401 226.1 6.82943 226.1 6.35547C226.1 5.86784 225.956 5.47363 225.669 5.17285C225.382 4.87207 224.985 4.71712 224.479 4.70801H222.6V7.83203ZM233.988 10.9492H230.393L229.709 13H227.528L231.233 3.04688H233.134L236.859 13H234.679L233.988 10.9492ZM230.946 9.28809H233.435L232.184 5.5625L230.946 9.28809ZM239.97 13H237.919V3.04688H239.97V13ZM239.334 0.360352H241.487L239.594 2.47949H237.987L239.334 0.360352ZM247.038 10.3887C247.038 10.0013 246.901 9.70508 246.628 9.5C246.354 9.29036 245.862 9.07161 245.151 8.84375C244.44 8.61133 243.878 8.38346 243.463 8.16016C242.333 7.54948 241.768 6.72689 241.768 5.69238C241.768 5.15462 241.918 4.67611 242.219 4.25684C242.524 3.83301 242.959 3.5026 243.524 3.26562C244.094 3.02865 244.732 2.91016 245.438 2.91016C246.149 2.91016 246.783 3.04004 247.339 3.2998C247.895 3.55501 248.326 3.91732 248.631 4.38672C248.941 4.85612 249.096 5.38932 249.096 5.98633H247.045C247.045 5.5306 246.901 5.17741 246.614 4.92676C246.327 4.67155 245.924 4.54395 245.404 4.54395C244.903 4.54395 244.513 4.65104 244.235 4.86523C243.957 5.07487 243.818 5.35286 243.818 5.69922C243.818 6.02279 243.98 6.29395 244.304 6.5127C244.632 6.73145 245.113 6.93652 245.746 7.12793C246.913 7.47884 247.763 7.91406 248.296 8.43359C248.829 8.95312 249.096 9.60026 249.096 10.375C249.096 11.2363 248.77 11.9131 248.118 12.4053C247.466 12.8929 246.589 13.1367 245.486 13.1367C244.721 13.1367 244.023 12.9977 243.395 12.7197C242.766 12.4372 242.285 12.0521 241.952 11.5645C241.624 11.0768 241.46 10.5117 241.46 9.86914H243.518C243.518 10.9674 244.174 11.5166 245.486 11.5166C245.974 11.5166 246.354 11.4186 246.628 11.2227C246.901 11.0221 247.038 10.7441 247.038 10.3887Z" fill="black"/>
</g>
<defs>
<filter id="filter0_d" x="0.47168" y="0.360352" width="252.624" height="23.1348" filterUnits="userSpaceOnUse" color-interpolation-filters="sRGB">
<feFlood flood-opacity="0" result="BackgroundImageFix"/>
<feColorMatrix in="SourceAlpha" type="matrix" values="0 0 0 0 0 0 0 0 0 0 0 0 0 0 0 0 0 0 127 0"/>
<feOffset dy="4"/>
<feGaussianBlur stdDeviation="2"/>
<feColorMatrix type="matrix" values="0 0 0 0 0.984314 0 0 0 0 0.992157 0 0 0 0 0.419608 0 0 0 1 0"/>
<feBlend mode="normal" in2="BackgroundImageFix" result="effect1_dropShadow"/>
<feBlend mode="normal" in="SourceGraphic" in2="effect1_dropShadow" result="shape"/>
</filter>
</defs>
</svg>
