<svg width="230" height="24" viewBox="0 0 230 24" fill="none" xmlns="http://www.w3.org/2000/svg">
<g filter="url(#filter0_d)">
<path d="M8.32031 7.53125L10.3916 3.04688H12.6338L9.36621 9.39062V13H7.28125V9.39062L4.01367 3.04688H6.2627L8.32031 7.53125ZM20.4199 3.04688V9.60254C20.4199 10.6917 20.0781 11.5531 19.3945 12.1865C18.7155 12.82 17.7858 13.1367 16.6055 13.1367C15.4434 13.1367 14.5205 12.8291 13.8369 12.2139C13.1533 11.5986 12.8047 10.7533 12.791 9.67773V3.04688H14.8418V9.61621C14.8418 10.2679 14.9967 10.7441 15.3066 11.0449C15.6211 11.3411 16.054 11.4893 16.6055 11.4893C17.7585 11.4893 18.3441 10.8831 18.3623 9.6709V3.04688H20.4199ZM30.1953 13H28.1445L24.1523 6.45117V13H22.1016V3.04688H24.1523L28.1514 9.60938V3.04688H30.1953V13ZM39.8613 11.7422C39.4922 12.1842 38.9704 12.5283 38.2959 12.7744C37.6214 13.016 36.874 13.1367 36.0537 13.1367C35.1924 13.1367 34.4359 12.9499 33.7842 12.5762C33.137 12.1979 32.6357 11.651 32.2803 10.9355C31.9294 10.2201 31.7493 9.37923 31.7402 8.41309V7.73633C31.7402 6.74284 31.9066 5.88379 32.2393 5.15918C32.5765 4.43001 33.0596 3.87402 33.6885 3.49121C34.3219 3.10384 35.0625 2.91016 35.9102 2.91016C37.0905 2.91016 38.0133 3.19271 38.6787 3.75781C39.3441 4.31836 39.7383 5.13639 39.8613 6.21191H37.8652C37.7741 5.64225 37.5713 5.22526 37.2568 4.96094C36.9469 4.69661 36.5186 4.56445 35.9717 4.56445C35.2744 4.56445 34.7435 4.8265 34.3789 5.35059C34.0143 5.87467 33.8298 6.65397 33.8252 7.68848V8.32422C33.8252 9.36784 34.0234 10.1562 34.4199 10.6895C34.8164 11.2227 35.3975 11.4893 36.1631 11.4893C36.9333 11.4893 37.4824 11.3252 37.8105 10.9971V9.28125H35.9443V7.77051H39.8613V11.7422ZM45.0156 13V3.04688H48.502C49.7096 3.04688 50.6257 3.2793 51.25 3.74414C51.8743 4.20443 52.1865 4.88118 52.1865 5.77441C52.1865 6.26204 52.0612 6.69271 51.8105 7.06641C51.5599 7.43555 51.2113 7.70671 50.7646 7.87988C51.2751 8.00749 51.6761 8.26497 51.9678 8.65234C52.264 9.03971 52.4121 9.51367 52.4121 10.0742C52.4121 11.0312 52.1068 11.7559 51.4961 12.248C50.8854 12.7402 50.015 12.9909 48.8848 13H45.0156ZM47.0664 8.66602V11.3525H48.8232C49.3063 11.3525 49.6823 11.2386 49.9512 11.0107C50.2246 10.7783 50.3613 10.4593 50.3613 10.0537C50.3613 9.14225 49.8896 8.67969 48.9463 8.66602H47.0664ZM47.0664 7.2168H48.584C49.6185 7.19857 50.1357 6.78613 50.1357 5.97949C50.1357 5.52832 50.0036 5.20475 49.7393 5.00879C49.4795 4.80827 49.0671 4.70801 48.502 4.70801H47.0664V7.2168ZM59.9453 8.68652H56.0078V11.3525H60.6289V13H53.957V3.04688H60.6152V4.70801H56.0078V7.08008H59.9453V8.68652ZM67.8203 8.68652H63.8828V11.3525H68.5039V13H61.832V3.04688H68.4902V4.70801H63.8828V7.08008H67.8203V8.68652ZM75.6953 8.93262H71.7578V13H69.707V3.04688H76.1875V4.70801H71.7578V7.27832H75.6953V8.93262ZM75.8867 15.4951L74.8545 14.9551L75.1006 14.5107C75.4059 13.9548 75.5632 13.401 75.5723 12.8496V11.3184H77.2402L77.2334 12.6855C77.2288 13.1914 77.1012 13.7018 76.8506 14.2168C76.5999 14.7318 76.2786 15.1579 75.8867 15.4951ZM89.4902 4.70801H86.4414V13H84.3906V4.70801H81.3828V3.04688H89.4902V4.70801ZM96.6543 8.68652H92.7168V11.3525H97.3379V13H90.666V3.04688H97.3242V4.70801H92.7168V7.08008H96.6543V8.68652ZM106.635 13H104.584L100.592 6.45117V13H98.541V3.04688H100.592L104.591 9.60938V3.04688H106.635V13ZM115.713 4.70801H112.664V13H110.613V4.70801H107.605V3.04688H115.713V4.70801ZM121.688 10.9492H118.092L117.408 13H115.228L118.933 3.04688H120.833L124.559 13H122.378L121.688 10.9492ZM118.646 9.28809H121.134L119.883 5.5625L118.646 9.28809ZM133.151 9.68457C133.074 10.7555 132.677 11.5986 131.962 12.2139C131.251 12.8291 130.312 13.1367 129.146 13.1367C127.869 13.1367 126.865 12.7083 126.131 11.8516C125.402 10.9902 125.037 9.8099 125.037 8.31055V7.70215C125.037 6.74512 125.206 5.90202 125.543 5.17285C125.88 4.44368 126.361 3.88542 126.985 3.49805C127.614 3.10612 128.343 2.91016 129.173 2.91016C130.321 2.91016 131.246 3.21777 131.948 3.83301C132.65 4.44824 133.056 5.31185 133.165 6.42383H131.114C131.064 5.78125 130.884 5.31641 130.574 5.0293C130.269 4.73763 129.802 4.5918 129.173 4.5918C128.489 4.5918 127.977 4.83789 127.635 5.33008C127.298 5.81771 127.124 6.5765 127.115 7.60645V8.3584C127.115 9.43392 127.277 10.2201 127.601 10.7168C127.929 11.2135 128.444 11.4619 129.146 11.4619C129.779 11.4619 130.251 11.3184 130.561 11.0312C130.875 10.7396 131.055 10.2907 131.101 9.68457H133.151ZM136.679 13H134.628V3.04688H136.679V13ZM146.762 8.24902C146.762 9.22884 146.589 10.0879 146.242 10.8262C145.896 11.5645 145.399 12.1341 144.752 12.5352C144.109 12.9362 143.371 13.1367 142.537 13.1367C141.712 13.1367 140.976 12.9385 140.329 12.542C139.682 12.1455 139.181 11.5804 138.825 10.8467C138.47 10.1084 138.29 9.26074 138.285 8.30371V7.81152C138.285 6.83171 138.461 5.97038 138.812 5.22754C139.167 4.48014 139.666 3.9082 140.309 3.51172C140.956 3.11068 141.694 2.91016 142.523 2.91016C143.353 2.91016 144.089 3.11068 144.731 3.51172C145.379 3.9082 145.878 4.48014 146.229 5.22754C146.584 5.97038 146.762 6.82943 146.762 7.80469V8.24902ZM144.684 7.79785C144.684 6.75423 144.497 5.96126 144.123 5.41895C143.749 4.87663 143.216 4.60547 142.523 4.60547C141.835 4.60547 141.304 4.87435 140.931 5.41211C140.557 5.94531 140.368 6.72917 140.363 7.76367V8.24902C140.363 9.2653 140.55 10.0537 140.924 10.6143C141.298 11.1748 141.835 11.4551 142.537 11.4551C143.225 11.4551 143.754 11.1862 144.123 10.6484C144.492 10.1061 144.679 9.31771 144.684 8.2832V7.79785ZM156.346 13H154.295L150.303 6.45117V13H148.252V3.04688H150.303L154.302 9.60938V3.04688H156.346V13ZM164.125 8.68652H160.188V11.3525H164.809V13H158.137V3.04688H164.795V4.70801H160.188V7.08008H164.125V8.68652ZM171.173 10.3887C171.173 10.0013 171.036 9.70508 170.763 9.5C170.489 9.29036 169.997 9.07161 169.286 8.84375C168.575 8.61133 168.012 8.38346 167.598 8.16016C166.467 7.54948 165.902 6.72689 165.902 5.69238C165.902 5.15462 166.053 4.67611 166.354 4.25684C166.659 3.83301 167.094 3.5026 167.659 3.26562C168.229 3.02865 168.867 2.91016 169.573 2.91016C170.284 2.91016 170.918 3.04004 171.474 3.2998C172.03 3.55501 172.46 3.91732 172.766 4.38672C173.076 4.85612 173.23 5.38932 173.23 5.98633H171.18C171.18 5.5306 171.036 5.17741 170.749 4.92676C170.462 4.67155 170.059 4.54395 169.539 4.54395C169.038 4.54395 168.648 4.65104 168.37 4.86523C168.092 5.07487 167.953 5.35286 167.953 5.69922C167.953 6.02279 168.115 6.29395 168.438 6.5127C168.767 6.73145 169.247 6.93652 169.881 7.12793C171.048 7.47884 171.897 7.91406 172.431 8.43359C172.964 8.95312 173.23 9.60026 173.23 10.375C173.23 11.2363 172.905 11.9131 172.253 12.4053C171.601 12.8929 170.724 13.1367 169.621 13.1367C168.855 13.1367 168.158 12.9977 167.529 12.7197C166.9 12.4372 166.42 12.0521 166.087 11.5645C165.759 11.0768 165.595 10.5117 165.595 9.86914H167.652C167.652 10.9674 168.309 11.5166 169.621 11.5166C170.109 11.5166 170.489 11.4186 170.763 11.2227C171.036 11.0221 171.173 10.7441 171.173 10.3887ZM184.1 8.68652H180.162V11.3525H184.783V13H178.111V3.04688H184.77V4.70801H180.162V7.08008H184.1V8.68652ZM188.037 11.3525H192.392V13H185.986V3.04688H188.037V11.3525ZM199.111 9.49316V13H197.061V3.04688H200.943C201.691 3.04688 202.347 3.18359 202.912 3.45703C203.482 3.73047 203.919 4.12012 204.225 4.62598C204.53 5.12728 204.683 5.69922 204.683 6.3418C204.683 7.31706 204.348 8.08724 203.678 8.65234C203.012 9.21289 202.09 9.49316 200.909 9.49316H199.111ZM199.111 7.83203H200.943C201.486 7.83203 201.898 7.70443 202.181 7.44922C202.468 7.19401 202.611 6.82943 202.611 6.35547C202.611 5.86784 202.468 5.47363 202.181 5.17285C201.894 4.87207 201.497 4.71712 200.991 4.70801H199.111V7.83203ZM210.5 10.9492H206.904L206.221 13H204.04L207.745 3.04688H209.646L213.371 13H211.19L210.5 10.9492ZM207.458 9.28809H209.946L208.695 5.5625L207.458 9.28809ZM216.481 13H214.431V3.04688H216.481V13ZM215.846 0.360352H217.999L216.105 2.47949H214.499L215.846 0.360352ZM223.55 10.3887C223.55 10.0013 223.413 9.70508 223.14 9.5C222.866 9.29036 222.374 9.07161 221.663 8.84375C220.952 8.61133 220.389 8.38346 219.975 8.16016C218.844 7.54948 218.279 6.72689 218.279 5.69238C218.279 5.15462 218.43 4.67611 218.73 4.25684C219.036 3.83301 219.471 3.5026 220.036 3.26562C220.606 3.02865 221.244 2.91016 221.95 2.91016C222.661 2.91016 223.295 3.04004 223.851 3.2998C224.407 3.55501 224.837 3.91732 225.143 4.38672C225.452 4.85612 225.607 5.38932 225.607 5.98633H223.557C223.557 5.5306 223.413 5.17741 223.126 4.92676C222.839 4.67155 222.436 4.54395 221.916 4.54395C221.415 4.54395 221.025 4.65104 220.747 4.86523C220.469 5.07487 220.33 5.35286 220.33 5.69922C220.33 6.02279 220.492 6.29395 220.815 6.5127C221.144 6.73145 221.624 6.93652 222.258 7.12793C223.424 7.47884 224.274 7.91406 224.808 8.43359C225.341 8.95312 225.607 9.60026 225.607 10.375C225.607 11.2363 225.282 11.9131 224.63 12.4053C223.978 12.8929 223.101 13.1367 221.998 13.1367C221.232 13.1367 220.535 12.9977 219.906 12.7197C219.277 12.4372 218.797 12.0521 218.464 11.5645C218.136 11.0768 217.972 10.5117 217.972 9.86914H220.029C220.029 10.9674 220.686 11.5166 221.998 11.5166C222.486 11.5166 222.866 11.4186 223.14 11.2227C223.413 11.0221 223.55 10.7441 223.55 10.3887Z" fill="black"/>
</g>
<defs>
<filter id="filter0_d" x="0.0136719" y="0.360352" width="229.594" height="23.1348" filterUnits="userSpaceOnUse" color-interpolation-filters="sRGB">
<feFlood flood-opacity="0" result="BackgroundImageFix"/>
<feColorMatrix in="SourceAlpha" type="matrix" values="0 0 0 0 0 0 0 0 0 0 0 0 0 0 0 0 0 0 127 0"/>
<feOffset dy="4"/>
<feGaussianBlur stdDeviation="2"/>
<feColorMatrix type="matrix" values="0 0 0 0 0.984314 0 0 0 0 0.992157 0 0 0 0 0.419608 0 0 0 1 0"/>
<feBlend mode="normal" in2="BackgroundImageFix" result="effect1_dropShadow"/>
<feBlend mode="normal" in="SourceGraphic" in2="effect1_dropShadow" result="shape"/>
</filter>
</defs>
</svg>
